<?xml version="1.0" encoding="utf-8" standalone="no"?>
<!DOCTYPE svg PUBLIC "-//W3C//DTD SVG 1.1//EN"
  "http://www.w3.org/Graphics/SVG/1.1/DTD/svg11.dtd">
<svg xmlns:xlink="http://www.w3.org/1999/xlink" width="432pt" height="288pt" viewBox="0 0 432 288" xmlns="http://www.w3.org/2000/svg" version="1.1">
 <metadata>
  <rdf:RDF xmlns:dc="http://purl.org/dc/elements/1.1/" xmlns:cc="http://creativecommons.org/ns#" xmlns:rdf="http://www.w3.org/1999/02/22-rdf-syntax-ns#">
   <cc:Work>
    <dc:type rdf:resource="http://purl.org/dc/dcmitype/StillImage"/>
    <dc:date>2025-05-18T17:54:01.847935</dc:date>
    <dc:format>image/svg+xml</dc:format>
    <dc:creator>
     <cc:Agent>
      <dc:title>Matplotlib v3.9.2, https://matplotlib.org/</dc:title>
     </cc:Agent>
    </dc:creator>
   </cc:Work>
  </rdf:RDF>
 </metadata>
 <defs>
  <style type="text/css">*{stroke-linejoin: round; stroke-linecap: butt}</style>
 </defs>
 <g id="figure_1">
  <g id="patch_1">
   <path d="M 0 288 
L 432 288 
L 432 0 
L 0 0 
L 0 288 
z
" style="fill: none"/>
  </g>
  <g id="axes_1">
   <g id="patch_2">
    <path d="M 54 252 
L 388.8 252 
L 388.8 34.56 
L 54 34.56 
z
" style="fill: #ffffff"/>
   </g>
   <g id="matplotlib.axis_1">
    <g id="xtick_1">
     <g id="line2d_1">
      <path d="M 69.218182 252 
L 69.218182 34.56 
" clip-path="url(#pd06d16384f)" style="fill: none; stroke: #b0b0b0; stroke-width: 0.8; stroke-linecap: square"/>
     </g>
     <g id="line2d_2">
      <defs>
       <path id="mcf9e87afb2" d="M 0 0 
L 0 3.5 
" style="stroke: #000000; stroke-width: 0.8"/>
      </defs>
      <g>
       <use xlink:href="#mcf9e87afb2" x="69.218182" y="252" style="stroke: #000000; stroke-width: 0.8"/>
      </g>
     </g>
     <g id="text_1">
      <!-- 0 -->
      <g transform="translate(66.036932 266.598437) scale(0.1 -0.1)">
       <defs>
        <path id="DejaVuSans-30" d="M 2034 4250 
Q 1547 4250 1301 3770 
Q 1056 3291 1056 2328 
Q 1056 1369 1301 889 
Q 1547 409 2034 409 
Q 2525 409 2770 889 
Q 3016 1369 3016 2328 
Q 3016 3291 2770 3770 
Q 2525 4250 2034 4250 
z
M 2034 4750 
Q 2819 4750 3233 4129 
Q 3647 3509 3647 2328 
Q 3647 1150 3233 529 
Q 2819 -91 2034 -91 
Q 1250 -91 836 529 
Q 422 1150 422 2328 
Q 422 3509 836 4129 
Q 1250 4750 2034 4750 
z
" transform="scale(0.015625)"/>
       </defs>
       <use xlink:href="#DejaVuSans-30"/>
      </g>
     </g>
    </g>
    <g id="xtick_2">
     <g id="line2d_3">
      <path d="M 130.335378 252 
L 130.335378 34.56 
" clip-path="url(#pd06d16384f)" style="fill: none; stroke: #b0b0b0; stroke-width: 0.8; stroke-linecap: square"/>
     </g>
     <g id="line2d_4">
      <g>
       <use xlink:href="#mcf9e87afb2" x="130.335378" y="252" style="stroke: #000000; stroke-width: 0.8"/>
      </g>
     </g>
     <g id="text_2">
      <!-- 50 -->
      <g transform="translate(123.972878 266.598437) scale(0.1 -0.1)">
       <defs>
        <path id="DejaVuSans-35" d="M 691 4666 
L 3169 4666 
L 3169 4134 
L 1269 4134 
L 1269 2991 
Q 1406 3038 1543 3061 
Q 1681 3084 1819 3084 
Q 2600 3084 3056 2656 
Q 3513 2228 3513 1497 
Q 3513 744 3044 326 
Q 2575 -91 1722 -91 
Q 1428 -91 1123 -41 
Q 819 9 494 109 
L 494 744 
Q 775 591 1075 516 
Q 1375 441 1709 441 
Q 2250 441 2565 725 
Q 2881 1009 2881 1497 
Q 2881 1984 2565 2268 
Q 2250 2553 1709 2553 
Q 1456 2553 1204 2497 
Q 953 2441 691 2322 
L 691 4666 
z
" transform="scale(0.015625)"/>
       </defs>
       <use xlink:href="#DejaVuSans-35"/>
       <use xlink:href="#DejaVuSans-30" x="63.623047"/>
      </g>
     </g>
    </g>
    <g id="xtick_3">
     <g id="line2d_5">
      <path d="M 191.452574 252 
L 191.452574 34.56 
" clip-path="url(#pd06d16384f)" style="fill: none; stroke: #b0b0b0; stroke-width: 0.8; stroke-linecap: square"/>
     </g>
     <g id="line2d_6">
      <g>
       <use xlink:href="#mcf9e87afb2" x="191.452574" y="252" style="stroke: #000000; stroke-width: 0.8"/>
      </g>
     </g>
     <g id="text_3">
      <!-- 100 -->
      <g transform="translate(181.908824 266.598437) scale(0.1 -0.1)">
       <defs>
        <path id="DejaVuSans-31" d="M 794 531 
L 1825 531 
L 1825 4091 
L 703 3866 
L 703 4441 
L 1819 4666 
L 2450 4666 
L 2450 531 
L 3481 531 
L 3481 0 
L 794 0 
L 794 531 
z
" transform="scale(0.015625)"/>
       </defs>
       <use xlink:href="#DejaVuSans-31"/>
       <use xlink:href="#DejaVuSans-30" x="63.623047"/>
       <use xlink:href="#DejaVuSans-30" x="127.246094"/>
      </g>
     </g>
    </g>
    <g id="xtick_4">
     <g id="line2d_7">
      <path d="M 252.56977 252 
L 252.56977 34.56 
" clip-path="url(#pd06d16384f)" style="fill: none; stroke: #b0b0b0; stroke-width: 0.8; stroke-linecap: square"/>
     </g>
     <g id="line2d_8">
      <g>
       <use xlink:href="#mcf9e87afb2" x="252.56977" y="252" style="stroke: #000000; stroke-width: 0.8"/>
      </g>
     </g>
     <g id="text_4">
      <!-- 150 -->
      <g transform="translate(243.02602 266.598437) scale(0.1 -0.1)">
       <use xlink:href="#DejaVuSans-31"/>
       <use xlink:href="#DejaVuSans-35" x="63.623047"/>
       <use xlink:href="#DejaVuSans-30" x="127.246094"/>
      </g>
     </g>
    </g>
    <g id="xtick_5">
     <g id="line2d_9">
      <path d="M 313.686966 252 
L 313.686966 34.56 
" clip-path="url(#pd06d16384f)" style="fill: none; stroke: #b0b0b0; stroke-width: 0.8; stroke-linecap: square"/>
     </g>
     <g id="line2d_10">
      <g>
       <use xlink:href="#mcf9e87afb2" x="313.686966" y="252" style="stroke: #000000; stroke-width: 0.8"/>
      </g>
     </g>
     <g id="text_5">
      <!-- 200 -->
      <g transform="translate(304.143216 266.598437) scale(0.1 -0.1)">
       <defs>
        <path id="DejaVuSans-32" d="M 1228 531 
L 3431 531 
L 3431 0 
L 469 0 
L 469 531 
Q 828 903 1448 1529 
Q 2069 2156 2228 2338 
Q 2531 2678 2651 2914 
Q 2772 3150 2772 3378 
Q 2772 3750 2511 3984 
Q 2250 4219 1831 4219 
Q 1534 4219 1204 4116 
Q 875 4013 500 3803 
L 500 4441 
Q 881 4594 1212 4672 
Q 1544 4750 1819 4750 
Q 2544 4750 2975 4387 
Q 3406 4025 3406 3419 
Q 3406 3131 3298 2873 
Q 3191 2616 2906 2266 
Q 2828 2175 2409 1742 
Q 1991 1309 1228 531 
z
" transform="scale(0.015625)"/>
       </defs>
       <use xlink:href="#DejaVuSans-32"/>
       <use xlink:href="#DejaVuSans-30" x="63.623047"/>
       <use xlink:href="#DejaVuSans-30" x="127.246094"/>
      </g>
     </g>
    </g>
    <g id="xtick_6">
     <g id="line2d_11">
      <path d="M 374.804162 252 
L 374.804162 34.56 
" clip-path="url(#pd06d16384f)" style="fill: none; stroke: #b0b0b0; stroke-width: 0.8; stroke-linecap: square"/>
     </g>
     <g id="line2d_12">
      <g>
       <use xlink:href="#mcf9e87afb2" x="374.804162" y="252" style="stroke: #000000; stroke-width: 0.8"/>
      </g>
     </g>
     <g id="text_6">
      <!-- 250 -->
      <g transform="translate(365.260412 266.598437) scale(0.1 -0.1)">
       <use xlink:href="#DejaVuSans-32"/>
       <use xlink:href="#DejaVuSans-35" x="63.623047"/>
       <use xlink:href="#DejaVuSans-30" x="127.246094"/>
      </g>
     </g>
    </g>
    <g id="text_7">
     <!-- Generations -->
     <g transform="translate(190.902344 280.276563) scale(0.1 -0.1)">
      <defs>
       <path id="DejaVuSans-47" d="M 3809 666 
L 3809 1919 
L 2778 1919 
L 2778 2438 
L 4434 2438 
L 4434 434 
Q 4069 175 3628 42 
Q 3188 -91 2688 -91 
Q 1594 -91 976 548 
Q 359 1188 359 2328 
Q 359 3472 976 4111 
Q 1594 4750 2688 4750 
Q 3144 4750 3555 4637 
Q 3966 4525 4313 4306 
L 4313 3634 
Q 3963 3931 3569 4081 
Q 3175 4231 2741 4231 
Q 1884 4231 1454 3753 
Q 1025 3275 1025 2328 
Q 1025 1384 1454 906 
Q 1884 428 2741 428 
Q 3075 428 3337 486 
Q 3600 544 3809 666 
z
" transform="scale(0.015625)"/>
       <path id="DejaVuSans-65" d="M 3597 1894 
L 3597 1613 
L 953 1613 
Q 991 1019 1311 708 
Q 1631 397 2203 397 
Q 2534 397 2845 478 
Q 3156 559 3463 722 
L 3463 178 
Q 3153 47 2828 -22 
Q 2503 -91 2169 -91 
Q 1331 -91 842 396 
Q 353 884 353 1716 
Q 353 2575 817 3079 
Q 1281 3584 2069 3584 
Q 2775 3584 3186 3129 
Q 3597 2675 3597 1894 
z
M 3022 2063 
Q 3016 2534 2758 2815 
Q 2500 3097 2075 3097 
Q 1594 3097 1305 2825 
Q 1016 2553 972 2059 
L 3022 2063 
z
" transform="scale(0.015625)"/>
       <path id="DejaVuSans-6e" d="M 3513 2113 
L 3513 0 
L 2938 0 
L 2938 2094 
Q 2938 2591 2744 2837 
Q 2550 3084 2163 3084 
Q 1697 3084 1428 2787 
Q 1159 2491 1159 1978 
L 1159 0 
L 581 0 
L 581 3500 
L 1159 3500 
L 1159 2956 
Q 1366 3272 1645 3428 
Q 1925 3584 2291 3584 
Q 2894 3584 3203 3211 
Q 3513 2838 3513 2113 
z
" transform="scale(0.015625)"/>
       <path id="DejaVuSans-72" d="M 2631 2963 
Q 2534 3019 2420 3045 
Q 2306 3072 2169 3072 
Q 1681 3072 1420 2755 
Q 1159 2438 1159 1844 
L 1159 0 
L 581 0 
L 581 3500 
L 1159 3500 
L 1159 2956 
Q 1341 3275 1631 3429 
Q 1922 3584 2338 3584 
Q 2397 3584 2469 3576 
Q 2541 3569 2628 3553 
L 2631 2963 
z
" transform="scale(0.015625)"/>
       <path id="DejaVuSans-61" d="M 2194 1759 
Q 1497 1759 1228 1600 
Q 959 1441 959 1056 
Q 959 750 1161 570 
Q 1363 391 1709 391 
Q 2188 391 2477 730 
Q 2766 1069 2766 1631 
L 2766 1759 
L 2194 1759 
z
M 3341 1997 
L 3341 0 
L 2766 0 
L 2766 531 
Q 2569 213 2275 61 
Q 1981 -91 1556 -91 
Q 1019 -91 701 211 
Q 384 513 384 1019 
Q 384 1609 779 1909 
Q 1175 2209 1959 2209 
L 2766 2209 
L 2766 2266 
Q 2766 2663 2505 2880 
Q 2244 3097 1772 3097 
Q 1472 3097 1187 3025 
Q 903 2953 641 2809 
L 641 3341 
Q 956 3463 1253 3523 
Q 1550 3584 1831 3584 
Q 2591 3584 2966 3190 
Q 3341 2797 3341 1997 
z
" transform="scale(0.015625)"/>
       <path id="DejaVuSans-74" d="M 1172 4494 
L 1172 3500 
L 2356 3500 
L 2356 3053 
L 1172 3053 
L 1172 1153 
Q 1172 725 1289 603 
Q 1406 481 1766 481 
L 2356 481 
L 2356 0 
L 1766 0 
Q 1100 0 847 248 
Q 594 497 594 1153 
L 594 3053 
L 172 3053 
L 172 3500 
L 594 3500 
L 594 4494 
L 1172 4494 
z
" transform="scale(0.015625)"/>
       <path id="DejaVuSans-69" d="M 603 3500 
L 1178 3500 
L 1178 0 
L 603 0 
L 603 3500 
z
M 603 4863 
L 1178 4863 
L 1178 4134 
L 603 4134 
L 603 4863 
z
" transform="scale(0.015625)"/>
       <path id="DejaVuSans-6f" d="M 1959 3097 
Q 1497 3097 1228 2736 
Q 959 2375 959 1747 
Q 959 1119 1226 758 
Q 1494 397 1959 397 
Q 2419 397 2687 759 
Q 2956 1122 2956 1747 
Q 2956 2369 2687 2733 
Q 2419 3097 1959 3097 
z
M 1959 3584 
Q 2709 3584 3137 3096 
Q 3566 2609 3566 1747 
Q 3566 888 3137 398 
Q 2709 -91 1959 -91 
Q 1206 -91 779 398 
Q 353 888 353 1747 
Q 353 2609 779 3096 
Q 1206 3584 1959 3584 
z
" transform="scale(0.015625)"/>
       <path id="DejaVuSans-73" d="M 2834 3397 
L 2834 2853 
Q 2591 2978 2328 3040 
Q 2066 3103 1784 3103 
Q 1356 3103 1142 2972 
Q 928 2841 928 2578 
Q 928 2378 1081 2264 
Q 1234 2150 1697 2047 
L 1894 2003 
Q 2506 1872 2764 1633 
Q 3022 1394 3022 966 
Q 3022 478 2636 193 
Q 2250 -91 1575 -91 
Q 1294 -91 989 -36 
Q 684 19 347 128 
L 347 722 
Q 666 556 975 473 
Q 1284 391 1588 391 
Q 1994 391 2212 530 
Q 2431 669 2431 922 
Q 2431 1156 2273 1281 
Q 2116 1406 1581 1522 
L 1381 1569 
Q 847 1681 609 1914 
Q 372 2147 372 2553 
Q 372 3047 722 3315 
Q 1072 3584 1716 3584 
Q 2034 3584 2315 3537 
Q 2597 3491 2834 3397 
z
" transform="scale(0.015625)"/>
      </defs>
      <use xlink:href="#DejaVuSans-47"/>
      <use xlink:href="#DejaVuSans-65" x="77.490234"/>
      <use xlink:href="#DejaVuSans-6e" x="139.013672"/>
      <use xlink:href="#DejaVuSans-65" x="202.392578"/>
      <use xlink:href="#DejaVuSans-72" x="263.916016"/>
      <use xlink:href="#DejaVuSans-61" x="305.029297"/>
      <use xlink:href="#DejaVuSans-74" x="366.308594"/>
      <use xlink:href="#DejaVuSans-69" x="405.517578"/>
      <use xlink:href="#DejaVuSans-6f" x="433.300781"/>
      <use xlink:href="#DejaVuSans-6e" x="494.482422"/>
      <use xlink:href="#DejaVuSans-73" x="557.861328"/>
     </g>
    </g>
   </g>
   <g id="matplotlib.axis_2">
    <g id="ytick_1">
     <g id="line2d_13">
      <path d="M 54 241.739167 
L 388.8 241.739167 
" clip-path="url(#pd06d16384f)" style="fill: none; stroke: #b0b0b0; stroke-width: 0.8; stroke-linecap: square"/>
     </g>
     <g id="line2d_14">
      <defs>
       <path id="m988cfffad1" d="M 0 0 
L -3.5 0 
" style="stroke: #000000; stroke-width: 0.8"/>
      </defs>
      <g>
       <use xlink:href="#m988cfffad1" x="54" y="241.739167" style="stroke: #000000; stroke-width: 0.8"/>
      </g>
     </g>
     <g id="text_8">
      <!-- −1000 -->
      <g transform="translate(13.170313 245.538385) scale(0.1 -0.1)">
       <defs>
        <path id="DejaVuSans-2212" d="M 678 2272 
L 4684 2272 
L 4684 1741 
L 678 1741 
L 678 2272 
z
" transform="scale(0.015625)"/>
       </defs>
       <use xlink:href="#DejaVuSans-2212"/>
       <use xlink:href="#DejaVuSans-31" x="83.789062"/>
       <use xlink:href="#DejaVuSans-30" x="147.412109"/>
       <use xlink:href="#DejaVuSans-30" x="211.035156"/>
       <use xlink:href="#DejaVuSans-30" x="274.658203"/>
      </g>
     </g>
    </g>
    <g id="ytick_2">
     <g id="line2d_15">
      <path d="M 54 208.851102 
L 388.8 208.851102 
" clip-path="url(#pd06d16384f)" style="fill: none; stroke: #b0b0b0; stroke-width: 0.8; stroke-linecap: square"/>
     </g>
     <g id="line2d_16">
      <g>
       <use xlink:href="#m988cfffad1" x="54" y="208.851102" style="stroke: #000000; stroke-width: 0.8"/>
      </g>
     </g>
     <g id="text_9">
      <!-- 0 -->
      <g transform="translate(40.6375 212.650321) scale(0.1 -0.1)">
       <use xlink:href="#DejaVuSans-30"/>
      </g>
     </g>
    </g>
    <g id="ytick_3">
     <g id="line2d_17">
      <path d="M 54 175.963038 
L 388.8 175.963038 
" clip-path="url(#pd06d16384f)" style="fill: none; stroke: #b0b0b0; stroke-width: 0.8; stroke-linecap: square"/>
     </g>
     <g id="line2d_18">
      <g>
       <use xlink:href="#m988cfffad1" x="54" y="175.963038" style="stroke: #000000; stroke-width: 0.8"/>
      </g>
     </g>
     <g id="text_10">
      <!-- 1000 -->
      <g transform="translate(21.55 179.762257) scale(0.1 -0.1)">
       <use xlink:href="#DejaVuSans-31"/>
       <use xlink:href="#DejaVuSans-30" x="63.623047"/>
       <use xlink:href="#DejaVuSans-30" x="127.246094"/>
       <use xlink:href="#DejaVuSans-30" x="190.869141"/>
      </g>
     </g>
    </g>
    <g id="ytick_4">
     <g id="line2d_19">
      <path d="M 54 143.074974 
L 388.8 143.074974 
" clip-path="url(#pd06d16384f)" style="fill: none; stroke: #b0b0b0; stroke-width: 0.8; stroke-linecap: square"/>
     </g>
     <g id="line2d_20">
      <g>
       <use xlink:href="#m988cfffad1" x="54" y="143.074974" style="stroke: #000000; stroke-width: 0.8"/>
      </g>
     </g>
     <g id="text_11">
      <!-- 2000 -->
      <g transform="translate(21.55 146.874193) scale(0.1 -0.1)">
       <use xlink:href="#DejaVuSans-32"/>
       <use xlink:href="#DejaVuSans-30" x="63.623047"/>
       <use xlink:href="#DejaVuSans-30" x="127.246094"/>
       <use xlink:href="#DejaVuSans-30" x="190.869141"/>
      </g>
     </g>
    </g>
    <g id="ytick_5">
     <g id="line2d_21">
      <path d="M 54 110.18691 
L 388.8 110.18691 
" clip-path="url(#pd06d16384f)" style="fill: none; stroke: #b0b0b0; stroke-width: 0.8; stroke-linecap: square"/>
     </g>
     <g id="line2d_22">
      <g>
       <use xlink:href="#m988cfffad1" x="54" y="110.18691" style="stroke: #000000; stroke-width: 0.8"/>
      </g>
     </g>
     <g id="text_12">
      <!-- 3000 -->
      <g transform="translate(21.55 113.986128) scale(0.1 -0.1)">
       <defs>
        <path id="DejaVuSans-33" d="M 2597 2516 
Q 3050 2419 3304 2112 
Q 3559 1806 3559 1356 
Q 3559 666 3084 287 
Q 2609 -91 1734 -91 
Q 1441 -91 1130 -33 
Q 819 25 488 141 
L 488 750 
Q 750 597 1062 519 
Q 1375 441 1716 441 
Q 2309 441 2620 675 
Q 2931 909 2931 1356 
Q 2931 1769 2642 2001 
Q 2353 2234 1838 2234 
L 1294 2234 
L 1294 2753 
L 1863 2753 
Q 2328 2753 2575 2939 
Q 2822 3125 2822 3475 
Q 2822 3834 2567 4026 
Q 2313 4219 1838 4219 
Q 1578 4219 1281 4162 
Q 984 4106 628 3988 
L 628 4550 
Q 988 4650 1302 4700 
Q 1616 4750 1894 4750 
Q 2613 4750 3031 4423 
Q 3450 4097 3450 3541 
Q 3450 3153 3228 2886 
Q 3006 2619 2597 2516 
z
" transform="scale(0.015625)"/>
       </defs>
       <use xlink:href="#DejaVuSans-33"/>
       <use xlink:href="#DejaVuSans-30" x="63.623047"/>
       <use xlink:href="#DejaVuSans-30" x="127.246094"/>
       <use xlink:href="#DejaVuSans-30" x="190.869141"/>
      </g>
     </g>
    </g>
    <g id="ytick_6">
     <g id="line2d_23">
      <path d="M 54 77.298845 
L 388.8 77.298845 
" clip-path="url(#pd06d16384f)" style="fill: none; stroke: #b0b0b0; stroke-width: 0.8; stroke-linecap: square"/>
     </g>
     <g id="line2d_24">
      <g>
       <use xlink:href="#m988cfffad1" x="54" y="77.298845" style="stroke: #000000; stroke-width: 0.8"/>
      </g>
     </g>
     <g id="text_13">
      <!-- 4000 -->
      <g transform="translate(21.55 81.098064) scale(0.1 -0.1)">
       <defs>
        <path id="DejaVuSans-34" d="M 2419 4116 
L 825 1625 
L 2419 1625 
L 2419 4116 
z
M 2253 4666 
L 3047 4666 
L 3047 1625 
L 3713 1625 
L 3713 1100 
L 3047 1100 
L 3047 0 
L 2419 0 
L 2419 1100 
L 313 1100 
L 313 1709 
L 2253 4666 
z
" transform="scale(0.015625)"/>
       </defs>
       <use xlink:href="#DejaVuSans-34"/>
       <use xlink:href="#DejaVuSans-30" x="63.623047"/>
       <use xlink:href="#DejaVuSans-30" x="127.246094"/>
       <use xlink:href="#DejaVuSans-30" x="190.869141"/>
      </g>
     </g>
    </g>
    <g id="ytick_7">
     <g id="line2d_25">
      <path d="M 54 44.410781 
L 388.8 44.410781 
" clip-path="url(#pd06d16384f)" style="fill: none; stroke: #b0b0b0; stroke-width: 0.8; stroke-linecap: square"/>
     </g>
     <g id="line2d_26">
      <g>
       <use xlink:href="#m988cfffad1" x="54" y="44.410781" style="stroke: #000000; stroke-width: 0.8"/>
      </g>
     </g>
     <g id="text_14">
      <!-- 5000 -->
      <g transform="translate(21.55 48.21) scale(0.1 -0.1)">
       <use xlink:href="#DejaVuSans-35"/>
       <use xlink:href="#DejaVuSans-30" x="63.623047"/>
       <use xlink:href="#DejaVuSans-30" x="127.246094"/>
       <use xlink:href="#DejaVuSans-30" x="190.869141"/>
      </g>
     </g>
    </g>
    <g id="text_15">
     <!-- Fitness -->
     <g transform="translate(7.090625 160.597188) rotate(-90) scale(0.1 -0.1)">
      <defs>
       <path id="DejaVuSans-46" d="M 628 4666 
L 3309 4666 
L 3309 4134 
L 1259 4134 
L 1259 2759 
L 3109 2759 
L 3109 2228 
L 1259 2228 
L 1259 0 
L 628 0 
L 628 4666 
z
" transform="scale(0.015625)"/>
      </defs>
      <use xlink:href="#DejaVuSans-46"/>
      <use xlink:href="#DejaVuSans-69" x="50.269531"/>
      <use xlink:href="#DejaVuSans-74" x="78.052734"/>
      <use xlink:href="#DejaVuSans-6e" x="117.261719"/>
      <use xlink:href="#DejaVuSans-65" x="180.640625"/>
      <use xlink:href="#DejaVuSans-73" x="242.164062"/>
      <use xlink:href="#DejaVuSans-73" x="294.263672"/>
     </g>
    </g>
   </g>
   <g id="line2d_27">
    <path d="M 69.218182 208.423716 
L 70.440526 207.979935 
L 71.66287 208.344261 
L 72.885214 207.988681 
L 74.107558 208.360526 
L 75.329901 207.939462 
L 76.552245 207.184192 
L 77.774589 208.405378 
L 78.996933 207.914113 
L 80.219277 207.128321 
L 81.441621 207.549556 
L 82.663965 205.113319 
L 83.886309 203.852066 
L 85.108653 205.07081 
L 86.330997 204.289347 
L 87.553341 205.478895 
L 88.775685 203.787486 
L 89.998028 203.865622 
L 91.220372 203.005462 
L 92.442716 202.901202 
L 93.66506 199.058424 
L 94.887404 202.298274 
L 96.109748 200.394974 
L 97.332092 200.422922 
L 98.554436 201.642899 
L 99.77678 203.842786 
L 100.999124 203.377523 
L 102.221468 197.467566 
L 103.443812 195.812075 
L 104.666156 198.907588 
L 105.888499 196.469096 
L 107.110843 199.915986 
L 108.333187 195.256148 
L 109.555531 197.625113 
L 110.777875 199.179398 
L 112.000219 198.030363 
L 113.222563 199.285139 
L 114.444907 198.942675 
L 115.667251 196.944144 
L 116.889595 194.695828 
L 118.111939 196.106234 
L 119.334283 196.640252 
L 120.556627 196.772285 
L 121.77897 198.461147 
L 123.001314 193.280311 
L 124.223658 195.39899 
L 125.446002 195.063622 
L 126.668346 193.982308 
L 127.89069 199.068574 
L 129.113034 196.137848 
L 130.335378 200.338367 
L 131.557722 196.192465 
L 132.780066 195.738487 
L 134.00241 195.805198 
L 135.224754 197.73134 
L 136.447097 192.77715 
L 137.669441 201.255878 
L 138.891785 195.712159 
L 141.336473 201.884529 
L 142.558817 199.732021 
L 143.781161 195.93522 
L 145.003505 197.555567 
L 146.225849 193.384869 
L 147.448193 192.565468 
L 148.670537 196.429678 
L 149.892881 192.0133 
L 151.115225 192.089652 
L 152.337568 195.638643 
L 153.559912 199.790902 
L 154.782256 196.501411 
L 157.226944 190.662886 
L 158.449288 194.397677 
L 159.671632 194.949049 
L 160.893976 195.035606 
L 162.11632 198.119806 
L 163.338664 197.79153 
L 164.561008 196.868136 
L 165.783352 196.907163 
L 167.005696 195.53751 
L 168.228039 193.812528 
L 169.450383 195.756731 
L 170.672727 193.813487 
L 171.895071 190.852772 
L 173.117415 196.158431 
L 174.339759 198.003632 
L 175.562103 198.678875 
L 176.784447 190.251064 
L 178.006791 195.198835 
L 179.229135 199.095275 
L 180.451479 193.692911 
L 181.673823 191.264755 
L 182.896166 194.446123 
L 184.11851 196.582289 
L 185.340854 195.25836 
L 186.563198 192.502109 
L 187.785542 195.351659 
L 189.007886 195.532489 
L 190.23023 197.03918 
L 191.452574 195.259921 
L 192.674918 190.777109 
L 193.897262 195.592467 
L 195.119606 197.832855 
L 196.34195 194.148914 
L 197.564294 196.399586 
L 198.786637 193.14748 
L 200.008981 194.515088 
L 201.231325 194.503263 
L 202.453669 199.291579 
L 203.676013 191.63433 
L 204.898357 197.079155 
L 206.120701 193.771425 
L 207.343045 192.653858 
L 208.565389 198.484381 
L 209.787733 197.296679 
L 211.010077 199.180907 
L 212.232421 195.500521 
L 213.454765 200.206337 
L 214.677108 195.666225 
L 217.121796 193.33589 
L 218.34414 195.84446 
L 219.566484 193.415599 
L 220.788828 192.952377 
L 222.011172 195.566443 
L 223.233516 195.235283 
L 224.45586 196.022194 
L 225.678204 195.623531 
L 226.900548 194.922527 
L 228.122892 193.202808 
L 229.345235 194.508947 
L 230.567579 194.590599 
L 231.789923 196.784976 
L 233.012267 193.737327 
L 234.234611 193.147739 
L 235.456955 196.640169 
L 236.679299 196.123588 
L 237.901643 195.191689 
L 239.123987 192.305149 
L 240.346331 192.14046 
L 241.568675 192.241284 
L 242.791019 192.080291 
L 244.013363 193.672967 
L 245.235706 187.848286 
L 246.45805 192.716742 
L 247.680394 188.138709 
L 248.902738 194.740747 
L 250.125082 194.666276 
L 251.347426 194.775115 
L 252.56977 191.738487 
L 253.792114 191.623504 
L 255.014458 189.91356 
L 256.236802 195.164223 
L 257.459146 187.977667 
L 258.68149 188.774769 
L 259.903834 186.612088 
L 261.126177 187.791304 
L 263.570865 190.993788 
L 264.793209 189.43717 
L 266.015553 189.561791 
L 267.237897 188.498365 
L 268.460241 194.233336 
L 269.682585 190.441004 
L 270.904929 190.344269 
L 272.127273 191.716319 
L 273.349617 188.869662 
L 274.571961 193.889095 
L 275.794304 189.092777 
L 277.016648 190.787946 
L 278.238992 190.809093 
L 279.461336 191.295501 
L 280.68368 186.027553 
L 281.906024 193.360686 
L 283.128368 193.564737 
L 284.350712 193.946495 
L 285.573056 194.621789 
L 286.7954 192.576787 
L 288.017744 190.013135 
L 290.462432 192.546998 
L 291.684775 189.178953 
L 292.907119 188.81176 
L 294.129463 188.78354 
L 295.351807 189.52727 
L 296.574151 193.710918 
L 297.796495 191.726765 
L 299.018839 182.717619 
L 300.241183 192.216352 
L 301.463527 187.937545 
L 302.685871 195.786543 
L 303.908215 190.199995 
L 305.130559 191.366926 
L 306.352903 189.201864 
L 307.575246 188.253523 
L 308.79759 191.294206 
L 310.019934 189.426455 
L 311.242278 187.054872 
L 312.464622 187.292206 
L 313.686966 188.590577 
L 314.90931 192.896823 
L 316.131654 190.726375 
L 317.353998 186.479546 
L 318.576342 189.049937 
L 319.798686 192.773232 
L 321.02103 192.675407 
L 322.243373 190.654944 
L 323.465717 191.381567 
L 324.688061 186.45311 
L 325.910405 195.550735 
L 327.132749 193.490683 
L 328.355093 188.638322 
L 329.577437 187.642345 
L 330.799781 193.710932 
L 332.022125 195.484058 
L 333.244469 190.859115 
L 334.466813 195.767275 
L 335.689157 193.6769 
L 336.911501 192.954505 
L 338.133844 194.103221 
L 339.356188 196.400466 
L 340.578532 192.931387 
L 341.800876 197.630066 
L 343.02322 193.973843 
L 344.245564 197.322315 
L 345.467908 192.081911 
L 346.690252 188.812017 
L 347.912596 192.424928 
L 349.13494 191.641614 
L 350.357284 195.085523 
L 351.579628 185.938157 
L 352.801972 189.788553 
L 354.024315 192.760308 
L 355.246659 188.99916 
L 356.469003 191.602075 
L 357.691347 192.476621 
L 358.913691 186.653633 
L 360.136035 186.328409 
L 361.358379 191.162734 
L 362.580723 193.299864 
L 363.803067 197.363047 
L 365.025411 193.759933 
L 366.247755 196.166732 
L 367.470099 192.908936 
L 368.692442 190.678782 
L 369.914786 190.273542 
L 371.13713 191.76694 
L 372.359474 191.275979 
L 373.581818 192.228019 
L 373.581818 192.228019 
" clip-path="url(#pd06d16384f)" style="fill: none; stroke: #0000ff; stroke-width: 1.5; stroke-linecap: square"/>
   </g>
   <g id="line2d_28">
    <path d="M 69.218182 216.596218 
L 70.440526 219.53155 
L 71.66287 216.469269 
L 72.885214 219.498922 
L 74.107558 216.564133 
L 75.329901 219.479086 
L 76.552245 223.47618 
L 77.774589 216.585131 
L 78.996933 219.441222 
L 80.219277 223.337591 
L 81.441621 221.54113 
L 82.663965 229.214775 
L 83.886309 231.595551 
L 85.108653 229.015443 
L 86.330997 230.813497 
L 87.553341 228.161957 
L 88.775685 231.456385 
L 89.998028 231.469723 
L 91.220372 232.731924 
L 92.442716 232.733961 
L 93.66506 237.227674 
L 94.887404 233.759775 
L 96.109748 235.994643 
L 97.332092 235.88292 
L 98.554436 234.648171 
L 99.77678 231.151141 
L 100.999124 231.777828 
L 102.221468 238.365113 
L 103.443812 239.432276 
L 104.666156 237.377994 
L 105.888499 239.072736 
L 107.110843 236.12573 
L 108.333187 239.760209 
L 110.777875 236.916713 
L 112.000219 237.936655 
L 113.222563 236.979126 
L 114.444907 237.245582 
L 115.667251 238.500078 
L 116.889595 240.002794 
L 118.111939 238.796828 
L 119.334283 238.97794 
L 120.556627 238.877282 
L 121.77897 237.387765 
L 123.001314 240.740778 
L 124.223658 239.707519 
L 125.446002 239.713099 
L 126.668346 240.396945 
L 127.89069 237.036878 
L 129.113034 239.181147 
L 130.335378 235.97328 
L 131.557722 239.218739 
L 132.780066 239.392243 
L 134.00241 239.433183 
L 135.224754 238.312682 
L 136.447097 240.94475 
L 137.669441 234.85438 
L 138.891785 239.535252 
L 140.114129 237.258743 
L 141.336473 233.92053 
L 143.781161 239.329688 
L 145.003505 238.163477 
L 146.225849 240.558764 
L 147.448193 240.97121 
L 148.670537 239.060575 
L 149.892881 241.169162 
L 151.115225 241.171287 
L 152.337568 239.669946 
L 153.559912 236.526884 
L 154.782256 239.082493 
L 156.0046 240.443908 
L 157.226944 241.452254 
L 158.449288 240.31086 
L 159.671632 239.790119 
L 160.893976 239.684948 
L 162.11632 237.872615 
L 163.338664 237.934131 
L 164.561008 238.7327 
L 165.783352 238.670039 
L 168.228039 240.218819 
L 169.450383 239.327796 
L 171.895071 241.37835 
L 173.117415 238.895654 
L 174.339759 237.874641 
L 175.562103 237.057602 
L 176.784447 241.359808 
L 178.006791 239.818328 
L 179.229135 236.714697 
L 180.451479 240.355555 
L 181.673823 241.110597 
L 182.896166 239.983451 
L 184.11851 238.631231 
L 185.340854 239.426251 
L 186.563198 240.762468 
L 187.785542 239.417845 
L 189.007886 239.450089 
L 190.23023 238.322466 
L 191.452574 239.4549 
L 192.674918 241.31719 
L 193.897262 239.137854 
L 195.119606 237.388585 
L 196.34195 239.998839 
L 197.564294 238.775914 
L 198.786637 240.627162 
L 200.008981 240.089498 
L 201.231325 239.758164 
L 202.453669 236.770993 
L 203.676013 241.016563 
L 204.898357 238.569695 
L 206.120701 240.441429 
L 207.343045 240.827886 
L 208.565389 237.587529 
L 209.787733 238.267137 
L 211.010077 236.896059 
L 212.232421 239.565009 
L 213.454765 235.850152 
L 214.677108 239.40442 
L 215.899452 239.882281 
L 217.121796 240.504545 
L 218.34414 239.409299 
L 219.566484 240.654446 
L 220.788828 240.625235 
L 222.011172 239.722652 
L 223.233516 239.592441 
L 224.45586 239.214737 
L 226.900548 239.764771 
L 228.122892 240.540805 
L 229.345235 240.084678 
L 230.567579 239.985423 
L 231.789923 238.649961 
L 233.012267 240.27353 
L 234.234611 240.584828 
L 235.456955 238.915267 
L 237.901643 239.548995 
L 239.123987 240.870337 
L 240.346331 240.994367 
L 241.568675 240.877947 
L 242.791019 241.234921 
L 244.013363 240.211866 
L 245.235706 241.902381 
L 246.45805 240.672539 
L 247.680394 241.889015 
L 248.902738 239.861012 
L 250.125082 239.816244 
L 251.347426 239.951345 
L 252.56977 241.098538 
L 253.792114 241.15051 
L 255.014458 241.6596 
L 256.236802 239.620394 
L 257.459146 242.057934 
L 258.68149 241.761138 
L 259.903834 241.920317 
L 261.126177 241.936584 
L 262.348521 241.504018 
L 263.570865 241.305253 
L 264.793209 241.6955 
L 266.015553 241.541098 
L 267.237897 241.728564 
L 268.460241 240.032191 
L 269.682585 241.476875 
L 270.904929 241.580793 
L 272.127273 241.19695 
L 273.349617 241.799174 
L 274.571961 240.40758 
L 275.794304 241.787833 
L 277.016648 241.541656 
L 278.238992 241.436168 
L 279.461336 241.175648 
L 280.68368 242.116364 
L 281.906024 240.580994 
L 283.128368 240.54999 
L 284.350712 240.401669 
L 285.573056 240.102727 
L 288.017744 241.472651 
L 290.462432 240.787387 
L 291.684775 241.525248 
L 292.907119 241.667206 
L 294.129463 241.675229 
L 295.351807 241.435313 
L 296.574151 240.222354 
L 299.018839 241.891597 
L 300.241183 240.769479 
L 301.463527 241.805107 
L 302.685871 238.889915 
L 303.908215 241.207844 
L 305.130559 241.080118 
L 307.575246 241.62092 
L 308.79759 241.208683 
L 311.242278 241.923012 
L 313.686966 241.640671 
L 314.90931 240.682957 
L 316.131654 241.484308 
L 317.353998 242.003507 
L 318.576342 241.724869 
L 319.798686 240.503225 
L 321.02103 240.667891 
L 322.243373 241.295541 
L 323.465717 241.013274 
L 324.688061 241.697579 
L 325.910405 239.20632 
L 327.132749 240.253124 
L 328.355093 241.714177 
L 329.577437 241.872283 
L 330.799781 240.221143 
L 332.022125 239.406052 
L 333.244469 241.018337 
L 334.466813 239.051171 
L 335.689157 240.069375 
L 336.911501 240.400499 
L 338.133844 239.933702 
L 339.356188 238.810452 
L 340.578532 240.457024 
L 341.800876 238.081395 
L 343.02322 240.159466 
L 344.245564 238.20321 
L 345.467908 240.861357 
L 346.690252 241.829232 
L 347.912596 240.700103 
L 349.13494 241.205977 
L 350.357284 239.76096 
L 351.579628 242.00987 
L 352.801972 241.523497 
L 354.024315 240.55341 
L 355.246659 241.738485 
L 357.691347 240.66372 
L 358.913691 241.930358 
L 360.136035 241.87681 
L 362.580723 240.319267 
L 363.803067 237.968996 
L 365.025411 240.367273 
L 366.247755 239.062669 
L 367.470099 240.594435 
L 368.692442 241.157475 
L 369.914786 241.269697 
L 371.13713 240.942736 
L 372.359474 241.046561 
L 373.581818 240.892433 
L 373.581818 240.892433 
" clip-path="url(#pd06d16384f)" style="fill: none; stroke-dasharray: 9.6,2.4,1.5,2.4; stroke-dashoffset: 0; stroke: #008000; stroke-width: 1.5"/>
   </g>
   <g id="line2d_29">
    <path d="M 69.218182 200.251213 
L 70.440526 196.428321 
L 71.66287 200.219253 
L 72.885214 196.47844 
L 74.107558 200.156919 
L 75.329901 196.399838 
L 76.552245 190.892205 
L 77.774589 200.225624 
L 78.996933 196.387004 
L 80.219277 190.919051 
L 81.441621 193.557981 
L 82.663965 181.011863 
L 83.886309 176.10858 
L 85.108653 181.126178 
L 86.330997 177.765198 
L 87.553341 182.795834 
L 88.775685 176.118587 
L 89.998028 176.261522 
L 91.220372 173.279001 
L 92.442716 173.068444 
L 93.66506 160.889175 
L 94.887404 170.836772 
L 96.109748 164.795305 
L 97.332092 164.962923 
L 98.554436 168.637627 
L 99.77678 176.534432 
L 100.999124 174.977218 
L 102.221468 156.570019 
L 103.443812 152.191874 
L 104.666156 160.437181 
L 105.888499 153.865455 
L 107.110843 163.706242 
L 108.333187 150.752087 
L 109.555531 156.893627 
L 110.777875 161.442083 
L 112.000219 158.124071 
L 113.222563 161.591153 
L 114.444907 160.639769 
L 115.667251 155.38821 
L 116.889595 149.388862 
L 118.111939 153.41564 
L 119.334283 154.302565 
L 120.556627 154.667288 
L 121.77897 159.534529 
L 123.001314 145.819844 
L 124.223658 151.090461 
L 125.446002 150.414144 
L 126.668346 147.56767 
L 127.89069 161.100269 
L 129.113034 153.094548 
L 130.335378 164.703454 
L 131.557722 153.16619 
L 132.780066 152.084731 
L 134.00241 152.177214 
L 135.224754 157.149999 
L 136.447097 144.60955 
L 137.669441 167.657376 
L 138.891785 151.889066 
L 140.114129 160.447966 
L 141.336473 169.848528 
L 142.558817 162.906372 
L 143.781161 152.540752 
L 145.003505 156.947657 
L 146.225849 146.210975 
L 147.448193 144.159727 
L 148.670537 153.79878 
L 149.892881 142.857439 
L 151.115225 143.008018 
L 152.337568 151.60734 
L 153.559912 163.054921 
L 154.782256 153.920329 
L 157.226944 139.873518 
L 158.449288 148.484495 
L 159.671632 150.107979 
L 160.893976 150.386264 
L 162.11632 158.366997 
L 163.338664 157.648929 
L 164.561008 155.003571 
L 165.783352 155.144287 
L 167.005696 151.606107 
L 168.228039 147.406238 
L 169.450383 152.185665 
L 170.672727 147.314194 
L 171.895071 140.327194 
L 173.117415 153.421209 
L 174.339759 158.132623 
L 175.562103 160.300149 
L 176.784447 139.14232 
L 179.229135 161.475854 
L 180.451479 147.030266 
L 181.673823 141.418913 
L 182.896166 148.908795 
L 184.11851 154.533347 
L 185.340854 151.090468 
L 186.563198 144.241751 
L 187.785542 151.285473 
L 189.007886 151.614889 
L 190.23023 155.755895 
L 191.452574 151.064942 
L 192.674918 140.237027 
L 193.897262 152.047079 
L 195.119606 158.277124 
L 196.34195 148.298989 
L 197.564294 154.023257 
L 198.786637 145.667797 
L 200.008981 148.940679 
L 201.231325 149.248362 
L 202.453669 161.812166 
L 203.676013 142.252098 
L 204.898357 155.588616 
L 206.120701 147.10142 
L 207.343045 144.479829 
L 208.565389 159.381232 
L 209.787733 156.326221 
L 211.010077 161.465756 
L 212.232421 151.436033 
L 213.454765 164.562523 
L 214.677108 151.92803 
L 217.121796 146.167236 
L 218.34414 152.27962 
L 219.566484 146.176751 
L 220.788828 145.279519 
L 222.011172 151.410234 
L 223.233516 150.878125 
L 224.45586 152.829651 
L 225.678204 151.742668 
L 226.900548 150.080284 
L 228.122892 145.864811 
L 229.345235 148.933216 
L 230.567579 149.195776 
L 231.789923 154.919991 
L 233.012267 147.201125 
L 234.234611 145.71065 
L 235.456955 154.365072 
L 236.679299 152.985231 
L 237.901643 150.834383 
L 239.123987 143.739962 
L 240.346331 143.286554 
L 241.568675 143.60462 
L 242.791019 142.925661 
L 244.013363 147.134068 
L 245.235706 133.794191 
L 246.45805 144.760945 
L 247.680394 134.388402 
L 248.902738 149.620482 
L 250.125082 149.516309 
L 251.347426 149.598886 
L 252.56977 142.378436 
L 253.792114 142.096499 
L 255.014458 138.167521 
L 256.236802 150.708053 
L 257.459146 133.897399 
L 258.68149 135.7884 
L 259.903834 131.303859 
L 261.126177 133.646024 
L 262.348521 137.448533 
L 263.570865 140.682322 
L 264.793209 137.178839 
L 266.015553 137.582484 
L 267.237897 135.268167 
L 268.460241 148.434482 
L 269.682585 139.405133 
L 270.904929 139.107746 
L 272.127273 142.235689 
L 273.349617 135.940151 
L 274.571961 147.370609 
L 275.794304 136.39772 
L 277.016648 140.034236 
L 278.238992 140.182018 
L 279.461336 141.415355 
L 280.68368 129.938742 
L 281.906024 146.140378 
L 283.128368 146.579483 
L 284.350712 147.491321 
L 285.573056 149.140851 
L 286.7954 144.367775 
L 288.017744 138.55362 
L 290.462432 144.306609 
L 291.684775 136.832657 
L 292.907119 135.956314 
L 294.129463 135.891852 
L 295.351807 137.619228 
L 296.574151 147.199481 
L 297.796495 142.446276 
L 299.018839 123.54364 
L 300.241183 143.663225 
L 301.463527 134.069983 
L 302.685871 152.683171 
L 303.908215 139.192146 
L 305.130559 141.653734 
L 306.352903 137.041094 
L 307.575246 134.886126 
L 308.79759 141.379729 
L 310.019934 137.254613 
L 311.242278 132.186733 
L 312.464622 132.819575 
L 313.686966 135.540483 
L 314.90931 145.110689 
L 316.131654 139.968443 
L 317.353998 130.955586 
L 318.576342 136.375004 
L 319.798686 145.043239 
L 321.02103 144.682923 
L 322.243373 140.014347 
L 323.465717 141.749859 
L 324.688061 131.208641 
L 325.910405 151.89515 
L 327.132749 146.728243 
L 328.355093 135.562468 
L 329.577437 133.412406 
L 330.799781 147.20072 
L 332.022125 151.562063 
L 333.244469 140.699892 
L 334.466813 152.483378 
L 335.689157 147.284424 
L 336.911501 145.508511 
L 338.133844 148.272739 
L 339.356188 153.99048 
L 340.578532 145.40575 
L 341.800876 157.178736 
L 343.02322 147.78822 
L 344.245564 156.44142 
L 345.467908 143.302465 
L 346.690252 135.794801 
L 347.912596 144.149752 
L 349.13494 142.07725 
L 350.357284 150.410086 
L 351.579628 129.866444 
L 352.801972 138.053609 
L 354.024315 144.967206 
L 355.246659 136.259836 
L 356.469003 141.961039 
L 357.691347 144.289522 
L 358.913691 131.376908 
L 360.136035 130.780007 
L 361.358379 141.18514 
L 362.580723 146.280461 
L 363.803067 156.757099 
L 365.025411 147.152593 
L 366.247755 153.270796 
L 367.470099 145.223436 
L 368.692442 140.200089 
L 369.914786 139.277386 
L 371.13713 142.591143 
L 372.359474 141.505398 
L 373.581818 143.563605 
L 373.581818 143.563605 
" clip-path="url(#pd06d16384f)" style="fill: none; stroke-dasharray: 9.6,2.4,1.5,2.4; stroke-dashoffset: 0; stroke: #008000; stroke-width: 1.5"/>
   </g>
   <g id="line2d_30">
    <path d="M 69.218182 45.258484 
L 70.440526 45.099406 
L 71.66287 46.427854 
L 74.107558 44.779871 
L 75.329901 44.937734 
L 76.552245 44.461148 
L 77.774589 44.946259 
L 78.996933 44.796348 
L 80.219277 44.780361 
L 81.441621 45.263911 
L 82.663965 44.456792 
L 83.886309 44.771741 
L 85.108653 44.629112 
L 86.330997 45.092308 
L 87.553341 44.450748 
L 88.775685 44.610003 
L 89.998028 44.453503 
L 91.220372 44.770005 
L 92.442716 44.446925 
L 97.332092 44.444999 
L 98.554436 44.623561 
L 99.77678 44.460353 
L 100.999124 44.937755 
L 102.221468 44.456792 
L 103.443812 44.447702 
L 104.666156 44.611899 
L 105.888499 44.458058 
L 107.110843 44.446925 
L 108.333187 44.615284 
L 109.555531 44.446925 
L 110.777875 44.604788 
L 112.000219 44.443636 
L 114.444907 44.450214 
L 115.667251 44.616986 
L 116.889595 44.446925 
L 120.556627 44.456792 
L 121.77897 44.608077 
L 123.001314 44.456792 
L 141.336473 44.444999 
L 142.558817 44.606714 
L 143.781161 44.447702 
L 146.225849 44.44965 
L 147.448193 44.60615 
L 148.670537 44.61078 
L 149.892881 44.452206 
L 152.337568 44.46008 
L 153.559912 44.769228 
L 154.782256 44.772517 
L 156.0046 44.44965 
L 159.671632 44.446925 
L 160.893976 44.608853 
L 163.338664 44.626546 
L 164.561008 44.457117 
L 169.450383 44.446925 
L 170.672727 44.61078 
L 171.895071 44.446925 
L 173.117415 44.456792 
L 175.562103 44.772517 
L 176.784447 44.446925 
L 187.785542 44.453908 
L 189.007886 44.608077 
L 190.23023 44.461406 
L 191.452574 44.444999 
L 192.674918 44.608077 
L 193.897262 44.453908 
L 204.898357 44.444999 
L 206.120701 44.608077 
L 207.343045 44.44965 
L 220.788828 44.450748 
L 222.011172 44.61987 
L 223.233516 44.447702 
L 230.567579 44.450214 
L 231.789923 44.606714 
L 233.012267 44.447702 
L 234.234611 44.604788 
L 235.456955 44.443636 
L 255.014458 44.450214 
L 289.240088 44.447702 
L 290.462432 44.618134 
L 291.684775 44.444999 
L 316.131654 44.450748 
L 333.244469 44.443636 
L 334.466813 44.623431 
L 335.689157 44.456792 
L 343.02322 44.443636 
L 344.245564 44.608077 
L 345.467908 44.443636 
L 346.690252 44.61078 
L 347.912596 44.447702 
L 354.024315 44.444999 
L 355.246659 44.610003 
L 356.469003 44.447702 
L 365.025411 44.454301 
L 366.247755 44.622558 
L 367.470099 44.444999 
L 368.692442 44.608077 
L 369.914786 44.447702 
L 371.13713 44.61078 
L 372.359474 44.613292 
L 373.581818 44.450214 
L 373.581818 44.450214 
" clip-path="url(#pd06d16384f)" style="fill: none; stroke: #ff0000; stroke-width: 1.5; stroke-linecap: square"/>
   </g>
   <g id="patch_3">
    <path d="M 54 252 
L 54 34.56 
" style="fill: none; stroke: #000000; stroke-width: 0.8; stroke-linejoin: miter; stroke-linecap: square"/>
   </g>
   <g id="patch_4">
    <path d="M 388.8 252 
L 388.8 34.56 
" style="fill: none; stroke: #000000; stroke-width: 0.8; stroke-linejoin: miter; stroke-linecap: square"/>
   </g>
   <g id="patch_5">
    <path d="M 54 252 
L 388.8 252 
" style="fill: none; stroke: #000000; stroke-width: 0.8; stroke-linejoin: miter; stroke-linecap: square"/>
   </g>
   <g id="patch_6">
    <path d="M 54 34.56 
L 388.8 34.56 
" style="fill: none; stroke: #000000; stroke-width: 0.8; stroke-linejoin: miter; stroke-linecap: square"/>
   </g>
   <g id="text_16">
    <!-- Population's average and best fitness -->
    <g transform="translate(108.769688 28.56) scale(0.12 -0.12)">
     <defs>
      <path id="DejaVuSans-50" d="M 1259 4147 
L 1259 2394 
L 2053 2394 
Q 2494 2394 2734 2622 
Q 2975 2850 2975 3272 
Q 2975 3691 2734 3919 
Q 2494 4147 2053 4147 
L 1259 4147 
z
M 628 4666 
L 2053 4666 
Q 2838 4666 3239 4311 
Q 3641 3956 3641 3272 
Q 3641 2581 3239 2228 
Q 2838 1875 2053 1875 
L 1259 1875 
L 1259 0 
L 628 0 
L 628 4666 
z
" transform="scale(0.015625)"/>
      <path id="DejaVuSans-70" d="M 1159 525 
L 1159 -1331 
L 581 -1331 
L 581 3500 
L 1159 3500 
L 1159 2969 
Q 1341 3281 1617 3432 
Q 1894 3584 2278 3584 
Q 2916 3584 3314 3078 
Q 3713 2572 3713 1747 
Q 3713 922 3314 415 
Q 2916 -91 2278 -91 
Q 1894 -91 1617 61 
Q 1341 213 1159 525 
z
M 3116 1747 
Q 3116 2381 2855 2742 
Q 2594 3103 2138 3103 
Q 1681 3103 1420 2742 
Q 1159 2381 1159 1747 
Q 1159 1113 1420 752 
Q 1681 391 2138 391 
Q 2594 391 2855 752 
Q 3116 1113 3116 1747 
z
" transform="scale(0.015625)"/>
      <path id="DejaVuSans-75" d="M 544 1381 
L 544 3500 
L 1119 3500 
L 1119 1403 
Q 1119 906 1312 657 
Q 1506 409 1894 409 
Q 2359 409 2629 706 
Q 2900 1003 2900 1516 
L 2900 3500 
L 3475 3500 
L 3475 0 
L 2900 0 
L 2900 538 
Q 2691 219 2414 64 
Q 2138 -91 1772 -91 
Q 1169 -91 856 284 
Q 544 659 544 1381 
z
M 1991 3584 
L 1991 3584 
z
" transform="scale(0.015625)"/>
      <path id="DejaVuSans-6c" d="M 603 4863 
L 1178 4863 
L 1178 0 
L 603 0 
L 603 4863 
z
" transform="scale(0.015625)"/>
      <path id="DejaVuSans-27" d="M 1147 4666 
L 1147 2931 
L 616 2931 
L 616 4666 
L 1147 4666 
z
" transform="scale(0.015625)"/>
      <path id="DejaVuSans-20" transform="scale(0.015625)"/>
      <path id="DejaVuSans-76" d="M 191 3500 
L 800 3500 
L 1894 563 
L 2988 3500 
L 3597 3500 
L 2284 0 
L 1503 0 
L 191 3500 
z
" transform="scale(0.015625)"/>
      <path id="DejaVuSans-67" d="M 2906 1791 
Q 2906 2416 2648 2759 
Q 2391 3103 1925 3103 
Q 1463 3103 1205 2759 
Q 947 2416 947 1791 
Q 947 1169 1205 825 
Q 1463 481 1925 481 
Q 2391 481 2648 825 
Q 2906 1169 2906 1791 
z
M 3481 434 
Q 3481 -459 3084 -895 
Q 2688 -1331 1869 -1331 
Q 1566 -1331 1297 -1286 
Q 1028 -1241 775 -1147 
L 775 -588 
Q 1028 -725 1275 -790 
Q 1522 -856 1778 -856 
Q 2344 -856 2625 -561 
Q 2906 -266 2906 331 
L 2906 616 
Q 2728 306 2450 153 
Q 2172 0 1784 0 
Q 1141 0 747 490 
Q 353 981 353 1791 
Q 353 2603 747 3093 
Q 1141 3584 1784 3584 
Q 2172 3584 2450 3431 
Q 2728 3278 2906 2969 
L 2906 3500 
L 3481 3500 
L 3481 434 
z
" transform="scale(0.015625)"/>
      <path id="DejaVuSans-64" d="M 2906 2969 
L 2906 4863 
L 3481 4863 
L 3481 0 
L 2906 0 
L 2906 525 
Q 2725 213 2448 61 
Q 2172 -91 1784 -91 
Q 1150 -91 751 415 
Q 353 922 353 1747 
Q 353 2572 751 3078 
Q 1150 3584 1784 3584 
Q 2172 3584 2448 3432 
Q 2725 3281 2906 2969 
z
M 947 1747 
Q 947 1113 1208 752 
Q 1469 391 1925 391 
Q 2381 391 2643 752 
Q 2906 1113 2906 1747 
Q 2906 2381 2643 2742 
Q 2381 3103 1925 3103 
Q 1469 3103 1208 2742 
Q 947 2381 947 1747 
z
" transform="scale(0.015625)"/>
      <path id="DejaVuSans-62" d="M 3116 1747 
Q 3116 2381 2855 2742 
Q 2594 3103 2138 3103 
Q 1681 3103 1420 2742 
Q 1159 2381 1159 1747 
Q 1159 1113 1420 752 
Q 1681 391 2138 391 
Q 2594 391 2855 752 
Q 3116 1113 3116 1747 
z
M 1159 2969 
Q 1341 3281 1617 3432 
Q 1894 3584 2278 3584 
Q 2916 3584 3314 3078 
Q 3713 2572 3713 1747 
Q 3713 922 3314 415 
Q 2916 -91 2278 -91 
Q 1894 -91 1617 61 
Q 1341 213 1159 525 
L 1159 0 
L 581 0 
L 581 4863 
L 1159 4863 
L 1159 2969 
z
" transform="scale(0.015625)"/>
      <path id="DejaVuSans-66" d="M 2375 4863 
L 2375 4384 
L 1825 4384 
Q 1516 4384 1395 4259 
Q 1275 4134 1275 3809 
L 1275 3500 
L 2222 3500 
L 2222 3053 
L 1275 3053 
L 1275 0 
L 697 0 
L 697 3053 
L 147 3053 
L 147 3500 
L 697 3500 
L 697 3744 
Q 697 4328 969 4595 
Q 1241 4863 1831 4863 
L 2375 4863 
z
" transform="scale(0.015625)"/>
     </defs>
     <use xlink:href="#DejaVuSans-50"/>
     <use xlink:href="#DejaVuSans-6f" x="56.677734"/>
     <use xlink:href="#DejaVuSans-70" x="117.859375"/>
     <use xlink:href="#DejaVuSans-75" x="181.335938"/>
     <use xlink:href="#DejaVuSans-6c" x="244.714844"/>
     <use xlink:href="#DejaVuSans-61" x="272.498047"/>
     <use xlink:href="#DejaVuSans-74" x="333.777344"/>
     <use xlink:href="#DejaVuSans-69" x="372.986328"/>
     <use xlink:href="#DejaVuSans-6f" x="400.769531"/>
     <use xlink:href="#DejaVuSans-6e" x="461.951172"/>
     <use xlink:href="#DejaVuSans-27" x="525.330078"/>
     <use xlink:href="#DejaVuSans-73" x="552.820312"/>
     <use xlink:href="#DejaVuSans-20" x="604.919922"/>
     <use xlink:href="#DejaVuSans-61" x="636.707031"/>
     <use xlink:href="#DejaVuSans-76" x="697.986328"/>
     <use xlink:href="#DejaVuSans-65" x="757.166016"/>
     <use xlink:href="#DejaVuSans-72" x="818.689453"/>
     <use xlink:href="#DejaVuSans-61" x="859.802734"/>
     <use xlink:href="#DejaVuSans-67" x="921.082031"/>
     <use xlink:href="#DejaVuSans-65" x="984.558594"/>
     <use xlink:href="#DejaVuSans-20" x="1046.082031"/>
     <use xlink:href="#DejaVuSans-61" x="1077.869141"/>
     <use xlink:href="#DejaVuSans-6e" x="1139.148438"/>
     <use xlink:href="#DejaVuSans-64" x="1202.527344"/>
     <use xlink:href="#DejaVuSans-20" x="1266.003906"/>
     <use xlink:href="#DejaVuSans-62" x="1297.791016"/>
     <use xlink:href="#DejaVuSans-65" x="1361.267578"/>
     <use xlink:href="#DejaVuSans-73" x="1422.791016"/>
     <use xlink:href="#DejaVuSans-74" x="1474.890625"/>
     <use xlink:href="#DejaVuSans-20" x="1514.099609"/>
     <use xlink:href="#DejaVuSans-66" x="1545.886719"/>
     <use xlink:href="#DejaVuSans-69" x="1581.091797"/>
     <use xlink:href="#DejaVuSans-74" x="1608.875"/>
     <use xlink:href="#DejaVuSans-6e" x="1648.083984"/>
     <use xlink:href="#DejaVuSans-65" x="1711.462891"/>
     <use xlink:href="#DejaVuSans-73" x="1772.986328"/>
     <use xlink:href="#DejaVuSans-73" x="1825.085938"/>
    </g>
   </g>
   <g id="legend_1">
    <g id="patch_7">
     <path d="M 61 174.13625 
L 133.940625 174.13625 
Q 135.940625 174.13625 135.940625 172.13625 
L 135.940625 114.42375 
Q 135.940625 112.42375 133.940625 112.42375 
L 61 112.42375 
Q 59 112.42375 59 114.42375 
L 59 172.13625 
Q 59 174.13625 61 174.13625 
z
" style="fill: #ffffff; opacity: 0.8; stroke: #cccccc; stroke-linejoin: miter"/>
    </g>
    <g id="line2d_31">
     <path d="M 63 120.522188 
L 73 120.522188 
L 83 120.522188 
" style="fill: none; stroke: #0000ff; stroke-width: 1.5; stroke-linecap: square"/>
    </g>
    <g id="text_17">
     <!-- average -->
     <g transform="translate(91 124.022188) scale(0.1 -0.1)">
      <use xlink:href="#DejaVuSans-61"/>
      <use xlink:href="#DejaVuSans-76" x="61.279297"/>
      <use xlink:href="#DejaVuSans-65" x="120.458984"/>
      <use xlink:href="#DejaVuSans-72" x="181.982422"/>
      <use xlink:href="#DejaVuSans-61" x="223.095703"/>
      <use xlink:href="#DejaVuSans-67" x="284.375"/>
      <use xlink:href="#DejaVuSans-65" x="347.851562"/>
     </g>
    </g>
    <g id="line2d_32">
     <path d="M 63 135.200312 
L 73 135.200312 
L 83 135.200312 
" style="fill: none; stroke-dasharray: 9.6,2.4,1.5,2.4; stroke-dashoffset: 0; stroke: #008000; stroke-width: 1.5"/>
    </g>
    <g id="text_18">
     <!-- -1 sd -->
     <g transform="translate(91 138.700312) scale(0.1 -0.1)">
      <defs>
       <path id="DejaVuSans-2d" d="M 313 2009 
L 1997 2009 
L 1997 1497 
L 313 1497 
L 313 2009 
z
" transform="scale(0.015625)"/>
      </defs>
      <use xlink:href="#DejaVuSans-2d"/>
      <use xlink:href="#DejaVuSans-31" x="36.083984"/>
      <use xlink:href="#DejaVuSans-20" x="99.707031"/>
      <use xlink:href="#DejaVuSans-73" x="131.494141"/>
      <use xlink:href="#DejaVuSans-64" x="183.59375"/>
     </g>
    </g>
    <g id="line2d_33">
     <path d="M 63 149.878438 
L 73 149.878438 
L 83 149.878438 
" style="fill: none; stroke-dasharray: 9.6,2.4,1.5,2.4; stroke-dashoffset: 0; stroke: #008000; stroke-width: 1.5"/>
    </g>
    <g id="text_19">
     <!-- +1 sd -->
     <g transform="translate(91 153.378438) scale(0.1 -0.1)">
      <defs>
       <path id="DejaVuSans-2b" d="M 2944 4013 
L 2944 2272 
L 4684 2272 
L 4684 1741 
L 2944 1741 
L 2944 0 
L 2419 0 
L 2419 1741 
L 678 1741 
L 678 2272 
L 2419 2272 
L 2419 4013 
L 2944 4013 
z
" transform="scale(0.015625)"/>
      </defs>
      <use xlink:href="#DejaVuSans-2b"/>
      <use xlink:href="#DejaVuSans-31" x="83.789062"/>
      <use xlink:href="#DejaVuSans-20" x="147.412109"/>
      <use xlink:href="#DejaVuSans-73" x="179.199219"/>
      <use xlink:href="#DejaVuSans-64" x="231.298828"/>
     </g>
    </g>
    <g id="line2d_34">
     <path d="M 63 164.556563 
L 73 164.556563 
L 83 164.556563 
" style="fill: none; stroke: #ff0000; stroke-width: 1.5; stroke-linecap: square"/>
    </g>
    <g id="text_20">
     <!-- best -->
     <g transform="translate(91 168.056563) scale(0.1 -0.1)">
      <use xlink:href="#DejaVuSans-62"/>
      <use xlink:href="#DejaVuSans-65" x="63.476562"/>
      <use xlink:href="#DejaVuSans-73" x="125"/>
      <use xlink:href="#DejaVuSans-74" x="177.099609"/>
     </g>
    </g>
   </g>
  </g>
 </g>
 <defs>
  <clipPath id="pd06d16384f">
   <rect x="54" y="34.56" width="334.8" height="217.44"/>
  </clipPath>
 </defs>
</svg>
