<?xml version="1.0" encoding="UTF-8" standalone="no"?>
<!DOCTYPE svg PUBLIC "-//W3C//DTD SVG 1.1//EN"
 "http://www.w3.org/Graphics/SVG/1.1/DTD/svg11.dtd">
<!-- Generated by graphviz version 12.2.1 (20241206.2353)
 -->
<!-- Pages: 1 -->
<svg width="1426pt" height="91pt"
 viewBox="0.00 0.00 1426.00 91.49" xmlns="http://www.w3.org/2000/svg" xmlns:xlink="http://www.w3.org/1999/xlink">
<g id="graph0" class="graph" transform="scale(1 1) rotate(0) translate(4 87.49)">
<polygon fill="white" stroke="none" points="-4,4 -4,-87.49 1422,-87.49 1422,4 -4,4"/>
<!-- &#45;1 -->
<g id="node1" class="node">
<title>&#45;1</title>
<polygon fill="lightgray" stroke="black" points="379.75,-83.49 356.25,-83.49 356.25,-64.99 379.75,-64.99 379.75,-83.49"/>
<text text-anchor="middle" x="368" y="-70.94" font-family="Times New Roman,serif" font-size="9.00">&#45;1</text>
</g>
<!-- 1 -->
<g id="node34" class="node">
<title>1</title>
<ellipse fill="lightblue" stroke="black" cx="677" cy="-14.5" rx="14.5" ry="14.5"/>
<text text-anchor="middle" x="677" y="-11.2" font-family="Times New Roman,serif" font-size="9.00">1</text>
</g>
<!-- &#45;1&#45;&gt;1 -->
<g id="edge1" class="edge">
<title>&#45;1&#45;&gt;1</title>
<path fill="none" stroke="red" stroke-width="0.32" d="M379.84,-68.05C382.79,-66.91 385.97,-65.8 389,-64.99 494.06,-36.93 524.8,-52.35 631,-28.99 638.43,-27.36 646.41,-25.17 653.61,-23.03"/>
<polygon fill="red" stroke="red" stroke-width="0.32" points="654.44,-26.44 662.97,-20.15 652.39,-19.75 654.44,-26.44"/>
</g>
<!-- 2 -->
<g id="node35" class="node">
<title>2</title>
<ellipse fill="lightblue" stroke="black" cx="608" cy="-14.5" rx="14.5" ry="14.5"/>
<text text-anchor="middle" x="608" y="-11.2" font-family="Times New Roman,serif" font-size="9.00">2</text>
</g>
<!-- &#45;1&#45;&gt;2 -->
<g id="edge2" class="edge">
<title>&#45;1&#45;&gt;2</title>
<path fill="none" stroke="red" stroke-width="0.22" d="M379.88,-68.21C382.83,-67.06 386,-65.91 389,-64.99 458.28,-43.69 542.46,-27.22 583.34,-19.8"/>
<polygon fill="red" stroke="red" stroke-width="0.22" points="583.9,-23.26 593.12,-18.05 582.66,-16.37 583.9,-23.26"/>
</g>
<!-- 3 -->
<g id="node36" class="node">
<title>3</title>
<ellipse fill="lightblue" stroke="black" cx="872" cy="-14.5" rx="14.5" ry="14.5"/>
<text text-anchor="middle" x="872" y="-11.2" font-family="Times New Roman,serif" font-size="9.00">3</text>
</g>
<!-- &#45;1&#45;&gt;3 -->
<g id="edge3" class="edge">
<title>&#45;1&#45;&gt;3</title>
<path fill="none" stroke="red" stroke-width="0.71" d="M379.81,-67.95C382.76,-66.81 385.95,-65.73 389,-64.99 433.68,-54.14 753.05,-25.83 846.42,-17.71"/>
<polygon fill="red" stroke="red" stroke-width="0.71" points="846.62,-21.2 856.28,-16.85 846.02,-14.23 846.62,-21.2"/>
</g>
<!-- &#45;2 -->
<g id="node2" class="node">
<title>&#45;2</title>
<polygon fill="lightgray" stroke="black" points="203.75,-83.49 180.25,-83.49 180.25,-64.99 203.75,-64.99 203.75,-83.49"/>
<text text-anchor="middle" x="192" y="-70.94" font-family="Times New Roman,serif" font-size="9.00">&#45;2</text>
</g>
<!-- &#45;2&#45;&gt;1 -->
<g id="edge4" class="edge">
<title>&#45;2&#45;&gt;1</title>
<path fill="none" stroke="green" stroke-width="0.47" d="M204.25,-67.75C207.07,-66.67 210.1,-65.67 213,-64.99 394.55,-22.46 447.74,-63.41 631,-28.99 638.39,-27.6 646.29,-25.52 653.42,-23.39"/>
<polygon fill="green" stroke="green" stroke-width="0.47" points="654.31,-26.78 662.8,-20.45 652.21,-20.1 654.31,-26.78"/>
</g>
<!-- &#45;2&#45;&gt;2 -->
<g id="edge5" class="edge">
<title>&#45;2&#45;&gt;2</title>
<path fill="none" stroke="green" stroke-width="0.91" d="M203.82,-68C206.77,-66.86 209.96,-65.77 213,-64.99 349.25,-30.27 518.4,-19.48 582.11,-16.51"/>
<polygon fill="green" stroke="green" stroke-width="0.91" points="582.19,-20.01 592.03,-16.07 581.89,-13.01 582.19,-20.01"/>
</g>
<!-- &#45;2&#45;&gt;3 -->
<g id="edge6" class="edge">
<title>&#45;2&#45;&gt;3</title>
<path fill="none" stroke="red" stroke-width="0.24" stroke-dasharray="1,5" d="M204.24,-67.72C207.07,-66.65 210.1,-65.65 213,-64.99 424.61,-16.77 483.59,-45.48 700,-28.99 752.32,-25 813.59,-20.15 847.05,-17.49"/>
<polygon fill="red" stroke="red" stroke-width="0.24" points="847.23,-20.99 856.92,-16.7 846.67,-14.01 847.23,-20.99"/>
</g>
<!-- &#45;3 -->
<g id="node3" class="node">
<title>&#45;3</title>
<polygon fill="lightgray" stroke="black" points="291.75,-83.49 268.25,-83.49 268.25,-64.99 291.75,-64.99 291.75,-83.49"/>
<text text-anchor="middle" x="280" y="-70.94" font-family="Times New Roman,serif" font-size="9.00">&#45;3</text>
</g>
<!-- &#45;3&#45;&gt;1 -->
<g id="edge7" class="edge">
<title>&#45;3&#45;&gt;1</title>
<path fill="none" stroke="red" stroke-width="0.43" d="M291.81,-67.97C294.77,-66.83 297.96,-65.74 301,-64.99 444.26,-29.71 486.32,-57.87 631,-28.99 638.37,-27.52 646.27,-25.41 653.4,-23.29"/>
<polygon fill="red" stroke="red" stroke-width="0.43" points="654.35,-26.66 662.85,-20.34 652.27,-19.98 654.35,-26.66"/>
</g>
<!-- &#45;4 -->
<g id="node4" class="node">
<title>&#45;4</title>
<polygon fill="lightgray" stroke="black" points="1191.75,-83.49 1168.25,-83.49 1168.25,-64.99 1191.75,-64.99 1191.75,-83.49"/>
<text text-anchor="middle" x="1180" y="-70.94" font-family="Times New Roman,serif" font-size="9.00">&#45;4</text>
</g>
<!-- 0 -->
<g id="node33" class="node">
<title>0</title>
<ellipse fill="lightblue" stroke="black" cx="919" cy="-14.5" rx="14.5" ry="14.5"/>
<text text-anchor="middle" x="919" y="-11.2" font-family="Times New Roman,serif" font-size="9.00">0</text>
</g>
<!-- &#45;4&#45;&gt;0 -->
<g id="edge8" class="edge">
<title>&#45;4&#45;&gt;0</title>
<path fill="none" stroke="green" stroke-width="0.16" d="M1168.13,-68.17C1165.18,-67.02 1162,-65.88 1159,-64.99 1081.74,-42.03 987.4,-25.95 943.56,-19.14"/>
<polygon fill="green" stroke="green" stroke-width="0.16" points="944.21,-15.69 933.79,-17.64 943.15,-22.61 944.21,-15.69"/>
</g>
<!-- &#45;4&#45;&gt;2 -->
<g id="edge9" class="edge">
<title>&#45;4&#45;&gt;2</title>
<path fill="none" stroke="red" stroke-width="0.56" stroke-dasharray="1,5" d="M1167.76,-67.72C1164.93,-66.64 1161.9,-65.65 1159,-64.99 939.55,-15.28 875.45,-68.89 654,-28.99 646.69,-27.67 638.89,-25.64 631.82,-23.54"/>
<polygon fill="red" stroke="red" stroke-width="0.56" points="632.91,-20.21 622.32,-20.54 630.8,-26.89 632.91,-20.21"/>
</g>
<!-- &#45;4&#45;&gt;3 -->
<g id="edge10" class="edge">
<title>&#45;4&#45;&gt;3</title>
<path fill="none" stroke="red" stroke-width="0.22" d="M1168.17,-68.03C1165.22,-66.88 1162.03,-65.78 1159,-64.99 1044.84,-35.21 1007.83,-66.57 896,-28.99 894.96,-28.64 893.91,-28.25 892.86,-27.81"/>
<polygon fill="red" stroke="red" stroke-width="0.22" points="894.6,-24.77 884.09,-23.44 891.48,-31.03 894.6,-24.77"/>
</g>
<!-- &#45;5 -->
<g id="node5" class="node">
<title>&#45;5</title>
<polygon fill="lightgray" stroke="black" points="69.75,-83.49 46.25,-83.49 46.25,-64.99 69.75,-64.99 69.75,-83.49"/>
<text text-anchor="middle" x="58" y="-70.94" font-family="Times New Roman,serif" font-size="9.00">&#45;5</text>
</g>
<!-- &#45;5&#45;&gt;1 -->
<g id="edge11" class="edge">
<title>&#45;5&#45;&gt;1</title>
<path fill="none" stroke="red" stroke-width="0.24" d="M70.24,-67.7C73.06,-66.63 76.09,-65.64 79,-64.99 318.94,-11.4 388.91,-71.86 631,-28.99 638.49,-27.67 646.49,-25.57 653.69,-23.42"/>
<polygon fill="red" stroke="red" stroke-width="0.24" points="654.68,-26.77 663.16,-20.42 652.57,-20.1 654.68,-26.77"/>
</g>
<!-- &#45;5&#45;&gt;2 -->
<g id="edge12" class="edge">
<title>&#45;5&#45;&gt;2</title>
<path fill="none" stroke="green" stroke-width="0.34" stroke-dasharray="1,5" d="M69.81,-67.93C72.76,-66.8 75.95,-65.72 79,-64.99 268.9,-19.76 506.36,-15.49 582.96,-15.36"/>
<polygon fill="green" stroke="green" stroke-width="0.34" points="582.93,-18.86 592.94,-15.37 582.94,-11.86 582.93,-18.86"/>
</g>
<!-- &#45;6 -->
<g id="node6" class="node">
<title>&#45;6</title>
<polygon fill="lightgray" stroke="black" points="1019.75,-83.49 996.25,-83.49 996.25,-64.99 1019.75,-64.99 1019.75,-83.49"/>
<text text-anchor="middle" x="1008" y="-70.94" font-family="Times New Roman,serif" font-size="9.00">&#45;6</text>
</g>
<!-- &#45;6&#45;&gt;0 -->
<g id="edge13" class="edge">
<title>&#45;6&#45;&gt;0</title>
<path fill="none" stroke="green" stroke-width="0.68" stroke-dasharray="1,5" d="M996,-65.45C981.66,-56.15 957.44,-40.44 939.99,-29.12"/>
<polygon fill="green" stroke="green" stroke-width="0.68" points="942.26,-26.41 931.96,-23.91 938.45,-32.29 942.26,-26.41"/>
</g>
<!-- &#45;6&#45;&gt;1 -->
<g id="edge14" class="edge">
<title>&#45;6&#45;&gt;1</title>
<path fill="none" stroke="red" stroke-width="0.14" d="M996.16,-68.07C993.21,-66.93 990.02,-65.82 987,-64.99 883.18,-36.67 755.09,-22.59 701.93,-17.63"/>
<polygon fill="red" stroke="red" stroke-width="0.14" points="702.25,-14.15 691.98,-16.73 701.62,-21.12 702.25,-14.15"/>
</g>
<!-- &#45;6&#45;&gt;2 -->
<g id="edge15" class="edge">
<title>&#45;6&#45;&gt;2</title>
<path fill="none" stroke="red" stroke-width="0.47" stroke-dasharray="1,5" d="M996.19,-67.97C993.24,-66.83 990.04,-65.74 987,-64.99 842.44,-29.46 800,-58.06 654,-28.99 646.63,-27.52 638.73,-25.41 631.6,-23.29"/>
<polygon fill="red" stroke="red" stroke-width="0.47" points="632.79,-20 622.2,-20.36 630.71,-26.68 632.79,-20"/>
</g>
<!-- &#45;6&#45;&gt;3 -->
<g id="edge16" class="edge">
<title>&#45;6&#45;&gt;3</title>
<path fill="none" stroke="green" stroke-width="0.11" d="M995.89,-68.48C967.42,-57.29 898.4,-30.13 896,-28.99 894.88,-28.46 893.75,-27.9 892.61,-27.32"/>
<polygon fill="green" stroke="green" stroke-width="0.11" points="894.64,-24.44 884.18,-22.77 891.32,-30.6 894.64,-24.44"/>
</g>
<!-- &#45;7 -->
<g id="node7" class="node">
<title>&#45;7</title>
<polygon fill="lightgray" stroke="black" points="1061.75,-83.49 1038.25,-83.49 1038.25,-64.99 1061.75,-64.99 1061.75,-83.49"/>
<text text-anchor="middle" x="1050" y="-70.94" font-family="Times New Roman,serif" font-size="9.00">&#45;7</text>
</g>
<!-- &#45;7&#45;&gt;0 -->
<g id="edge17" class="edge">
<title>&#45;7&#45;&gt;0</title>
<path fill="none" stroke="green" stroke-width="0.29" d="M1037.91,-67.91C1016.02,-58.26 969.51,-37.76 941.59,-25.45"/>
<polygon fill="green" stroke="green" stroke-width="0.29" points="943.19,-22.33 932.63,-21.5 940.37,-28.74 943.19,-22.33"/>
</g>
<!-- &#45;7&#45;&gt;1 -->
<g id="edge99" class="edge">
<title>&#45;7&#45;&gt;1</title>
<path fill="none" stroke="green" stroke-width="0.35" d="M1038.17,-68.03C1035.22,-66.89 1032.03,-65.79 1029,-64.99 908.98,-33.45 760.32,-20.92 702.07,-17"/>
<polygon fill="green" stroke="green" stroke-width="0.35" points="702.4,-13.51 692.19,-16.36 701.95,-20.5 702.4,-13.51"/>
</g>
<!-- &#45;7&#45;&gt;2 -->
<g id="edge18" class="edge">
<title>&#45;7&#45;&gt;2</title>
<path fill="none" stroke="red" stroke-width="0.16" d="M1038.19,-67.94C1035.24,-66.8 1032.05,-65.72 1029,-64.99 866.17,-26 818.4,-60.7 654,-28.99 646.45,-27.53 638.35,-25.37 631.09,-23.2"/>
<polygon fill="red" stroke="red" stroke-width="0.16" points="632.34,-19.92 621.75,-20.27 630.24,-26.6 632.34,-19.92"/>
</g>
<!-- &#45;7&#45;&gt;3 -->
<g id="edge98" class="edge">
<title>&#45;7&#45;&gt;3</title>
<path fill="none" stroke="red" stroke-width="0.41" d="M1038.09,-68.3C1035.14,-67.15 1031.98,-65.98 1029,-64.99 970.86,-45.77 952.68,-52.18 896,-28.99 895.11,-28.63 894.21,-28.24 893.31,-27.83"/>
<polygon fill="red" stroke="red" stroke-width="0.41" points="894.95,-24.74 884.46,-23.25 891.74,-30.95 894.95,-24.74"/>
</g>
<!-- &#45;8 -->
<g id="node8" class="node">
<title>&#45;8</title>
<polygon fill="lightgray" stroke="black" points="1233.75,-83.49 1210.25,-83.49 1210.25,-64.99 1233.75,-64.99 1233.75,-83.49"/>
<text text-anchor="middle" x="1222" y="-70.94" font-family="Times New Roman,serif" font-size="9.00">&#45;8</text>
</g>
<!-- &#45;8&#45;&gt;0 -->
<g id="edge19" class="edge">
<title>&#45;8&#45;&gt;0</title>
<path fill="none" stroke="red" stroke-width="0.68" d="M1210.15,-68.11C1207.2,-66.96 1204.02,-65.84 1201,-64.99 1108.19,-38.9 994.14,-23.93 944.31,-18.21"/>
<polygon fill="red" stroke="red" stroke-width="0.68" points="944.95,-14.76 934.63,-17.13 944.17,-21.72 944.95,-14.76"/>
</g>
<!-- &#45;8&#45;&gt;1 -->
<g id="edge20" class="edge">
<title>&#45;8&#45;&gt;1</title>
<path fill="none" stroke="green" stroke-width="0.22" d="M1210.19,-67.94C1207.24,-66.8 1204.05,-65.72 1201,-64.99 1152.06,-53.31 799.43,-25.09 701.92,-17.44"/>
<polygon fill="green" stroke="green" stroke-width="0.22" points="702.4,-13.96 692.16,-16.67 701.85,-20.94 702.4,-13.96"/>
</g>
<!-- &#45;8&#45;&gt;3 -->
<g id="edge21" class="edge">
<title>&#45;8&#45;&gt;3</title>
<path fill="none" stroke="red" stroke-width="0.69" stroke-dasharray="1,5" d="M1210.18,-67.99C1207.23,-66.85 1204.04,-65.75 1201,-64.99 1068.61,-31.76 1025.79,-71.26 896,-28.99 895.22,-28.74 894.43,-28.45 893.64,-28.15"/>
<polygon fill="red" stroke="red" stroke-width="0.69" points="895.24,-25.04 884.72,-23.8 892.17,-31.33 895.24,-25.04"/>
</g>
<!-- &#45;9 -->
<g id="node9" class="node">
<title>&#45;9</title>
<polygon fill="lightgray" stroke="black" points="1103.75,-83.49 1080.25,-83.49 1080.25,-64.99 1103.75,-64.99 1103.75,-83.49"/>
<text text-anchor="middle" x="1092" y="-70.94" font-family="Times New Roman,serif" font-size="9.00">&#45;9</text>
</g>
<!-- &#45;9&#45;&gt;0 -->
<g id="edge22" class="edge">
<title>&#45;9&#45;&gt;0</title>
<path fill="none" stroke="red" stroke-width="0.11" d="M1080.05,-68.41C1077.11,-67.25 1073.95,-66.05 1071,-64.99 1025.9,-48.81 972.5,-31.94 942.51,-22.67"/>
<polygon fill="red" stroke="red" stroke-width="0.11" points="943.68,-19.37 933.09,-19.78 941.62,-26.06 943.68,-19.37"/>
</g>
<!-- &#45;9&#45;&gt;1 -->
<g id="edge23" class="edge">
<title>&#45;9&#45;&gt;1</title>
<path fill="none" stroke="red" stroke-width="0.19" stroke-dasharray="1,5" d="M1080.18,-68C1077.23,-66.86 1074.04,-65.77 1071,-64.99 1000.17,-46.93 776.31,-24.83 701.57,-17.77"/>
<polygon fill="red" stroke="red" stroke-width="0.19" points="702.22,-14.32 691.94,-16.87 701.57,-21.29 702.22,-14.32"/>
</g>
<!-- &#45;9&#45;&gt;2 -->
<g id="edge24" class="edge">
<title>&#45;9&#45;&gt;2</title>
<path fill="none" stroke="red" stroke-width="0.34" d="M1079.75,-67.75C1076.93,-66.67 1073.9,-65.67 1071,-64.99 889.89,-22.54 836.82,-63.35 654,-28.99 646.53,-27.59 638.53,-25.47 631.33,-23.32"/>
<polygon fill="red" stroke="red" stroke-width="0.34" points="632.59,-20.05 622,-20.39 630.49,-26.72 632.59,-20.05"/>
</g>
<!-- &#45;9&#45;&gt;3 -->
<g id="edge25" class="edge">
<title>&#45;9&#45;&gt;3</title>
<path fill="none" stroke="green" stroke-width="0.31" d="M1080.13,-68.17C1077.18,-67.02 1074,-65.88 1071,-64.99 994.88,-42.39 970.38,-56.78 896,-28.99 894.97,-28.61 893.93,-28.18 892.89,-27.73"/>
<polygon fill="green" stroke="green" stroke-width="0.31" points="894.77,-24.76 884.28,-23.33 891.59,-30.99 894.77,-24.76"/>
</g>
<!-- &#45;10 -->
<g id="node10" class="node">
<title>&#45;10</title>
<polygon fill="lightgray" stroke="black" points="28,-83.49 0,-83.49 0,-64.99 28,-64.99 28,-83.49"/>
<text text-anchor="middle" x="14" y="-70.94" font-family="Times New Roman,serif" font-size="9.00">&#45;10</text>
</g>
<!-- &#45;10&#45;&gt;2 -->
<g id="edge26" class="edge">
<title>&#45;10&#45;&gt;2</title>
<path fill="none" stroke="red" stroke-width="0.56" stroke-dasharray="1,5" d="M28.43,-67.43C31.24,-66.48 34.18,-65.61 37,-64.99 244.07,-19.68 501.9,-15.51 582.63,-15.38"/>
<polygon fill="red" stroke="red" stroke-width="0.56" points="582.39,-18.88 592.39,-15.39 582.39,-11.88 582.39,-18.88"/>
</g>
<!-- &#45;11 -->
<g id="node11" class="node">
<title>&#45;11</title>
<polygon fill="lightgray" stroke="black" points="1150,-83.49 1122,-83.49 1122,-64.99 1150,-64.99 1150,-83.49"/>
<text text-anchor="middle" x="1136" y="-70.94" font-family="Times New Roman,serif" font-size="9.00">&#45;11</text>
</g>
<!-- &#45;11&#45;&gt;0 -->
<g id="edge27" class="edge">
<title>&#45;11&#45;&gt;0</title>
<path fill="none" stroke="green" stroke-width="0.3" stroke-dasharray="1,5" d="M1121.96,-67.97C1119.02,-66.93 1115.92,-65.89 1113,-64.99 1052.5,-46.47 979.95,-29.26 943.08,-20.87"/>
<polygon fill="green" stroke="green" stroke-width="0.3" points="944.21,-17.53 933.69,-18.74 942.67,-24.36 944.21,-17.53"/>
</g>
<!-- &#45;11&#45;&gt;1 -->
<g id="edge28" class="edge">
<title>&#45;11&#45;&gt;1</title>
<path fill="none" stroke="green" stroke-width="0.64" d="M1121.55,-67.49C1118.75,-66.53 1115.81,-65.65 1113,-64.99 1033.7,-46.53 782.85,-24.39 702.22,-17.59"/>
<polygon fill="green" stroke="green" stroke-width="0.64" points="702.61,-14.11 692.36,-16.76 702.03,-21.08 702.61,-14.11"/>
</g>
<!-- &#45;11&#45;&gt;2 -->
<g id="edge29" class="edge">
<title>&#45;11&#45;&gt;2</title>
<path fill="none" stroke="red" stroke-width="0.25" d="M1121.57,-67.41C1118.77,-66.46 1115.82,-65.6 1113,-64.99 912.93,-22.07 855.25,-65.99 654,-28.99 646.52,-27.62 638.52,-25.5 631.32,-23.35"/>
<polygon fill="red" stroke="red" stroke-width="0.25" points="632.45,-20.04 621.87,-20.37 630.35,-26.72 632.45,-20.04"/>
</g>
<!-- &#45;11&#45;&gt;3 -->
<g id="edge30" class="edge">
<title>&#45;11&#45;&gt;3</title>
<path fill="none" stroke="red" stroke-width="0.25" d="M1121.52,-67.6C1118.72,-66.64 1115.79,-65.72 1113,-64.99 1018.38,-40.39 988.22,-61.44 896,-28.99 894.96,-28.63 893.92,-28.22 892.88,-27.78"/>
<polygon fill="red" stroke="red" stroke-width="0.25" points="894.66,-24.76 884.15,-23.39 891.51,-31.01 894.66,-24.76"/>
</g>
<!-- &#45;12 -->
<g id="node12" class="node">
<title>&#45;12</title>
<polygon fill="lightgray" stroke="black" points="1280,-83.49 1252,-83.49 1252,-64.99 1280,-64.99 1280,-83.49"/>
<text text-anchor="middle" x="1266" y="-70.94" font-family="Times New Roman,serif" font-size="9.00">&#45;12</text>
</g>
<!-- &#45;12&#45;&gt;0 -->
<g id="edge31" class="edge">
<title>&#45;12&#45;&gt;0</title>
<path fill="none" stroke="green" stroke-width="0.73" d="M1251.53,-67.57C1248.73,-66.61 1245.8,-65.7 1243,-64.99 1133.79,-37.34 999.73,-22.86 944.56,-17.71"/>
<polygon fill="green" stroke="green" stroke-width="0.73" points="945.11,-14.25 934.84,-16.83 944.48,-21.22 945.11,-14.25"/>
</g>
<!-- &#45;12&#45;&gt;1 -->
<g id="edge32" class="edge">
<title>&#45;12&#45;&gt;1</title>
<path fill="none" stroke="green" stroke-width="0.23" d="M1251.57,-67.43C1248.76,-66.48 1245.82,-65.61 1243,-64.99 1216.16,-59.11 807.1,-25.96 701.65,-17.47"/>
<polygon fill="green" stroke="green" stroke-width="0.23" points="702.21,-14.01 691.96,-16.69 701.65,-20.98 702.21,-14.01"/>
</g>
<!-- &#45;12&#45;&gt;3 -->
<g id="edge33" class="edge">
<title>&#45;12&#45;&gt;3</title>
<path fill="none" stroke="red" stroke-width="0.49" stroke-dasharray="1,5" d="M1251.56,-67.46C1248.75,-66.51 1245.81,-65.63 1243,-64.99 1091.82,-30.57 1043.76,-75.97 896,-28.99 895.08,-28.7 894.16,-28.37 893.24,-28.01"/>
<polygon fill="red" stroke="red" stroke-width="0.49" points="894.96,-24.96 884.44,-23.7 891.88,-31.24 894.96,-24.96"/>
</g>
<!-- &#45;13 -->
<g id="node13" class="node">
<title>&#45;13</title>
<polygon fill="lightgray" stroke="black" points="564,-83.49 536,-83.49 536,-64.99 564,-64.99 564,-83.49"/>
<text text-anchor="middle" x="550" y="-70.94" font-family="Times New Roman,serif" font-size="9.00">&#45;13</text>
</g>
<!-- &#45;13&#45;&gt;0 -->
<g id="edge34" class="edge">
<title>&#45;13&#45;&gt;0</title>
<path fill="none" stroke="green" stroke-width="0.28" d="M564.45,-67.48C567.25,-66.53 570.19,-65.64 573,-64.99 713.28,-32.46 757.94,-73.17 895,-28.99 896.05,-28.65 897.1,-28.27 898.15,-27.85"/>
<polygon fill="green" stroke="green" stroke-width="0.28" points="899.43,-31.11 906.84,-23.54 896.33,-24.84 899.43,-31.11"/>
</g>
<!-- &#45;13&#45;&gt;1 -->
<g id="edge35" class="edge">
<title>&#45;13&#45;&gt;1</title>
<path fill="none" stroke="red" stroke-width="0.21" d="M564.08,-66.84C586.07,-56.84 628.75,-37.43 654.88,-25.55"/>
<polygon fill="red" stroke="red" stroke-width="0.21" points="656.06,-28.86 663.71,-21.54 653.16,-22.49 656.06,-28.86"/>
</g>
<!-- &#45;13&#45;&gt;2 -->
<g id="edge36" class="edge">
<title>&#45;13&#45;&gt;2</title>
<path fill="none" stroke="green" stroke-width="0.21" stroke-dasharray="1,5" d="M558.56,-64.72C567.08,-56.24 580.39,-42.99 591.05,-32.37"/>
<polygon fill="green" stroke="green" stroke-width="0.21" points="593.4,-34.97 598.01,-25.44 588.46,-30.01 593.4,-34.97"/>
</g>
<!-- &#45;13&#45;&gt;3 -->
<g id="edge37" class="edge">
<title>&#45;13&#45;&gt;3</title>
<path fill="none" stroke="green" stroke-width="0.13" d="M564.48,-67.6C567.28,-66.64 570.21,-65.72 573,-64.99 673.32,-38.92 796.29,-23.67 847.65,-18.02"/>
<polygon fill="green" stroke="green" stroke-width="0.13" points="847.73,-21.53 857.3,-16.98 846.98,-14.57 847.73,-21.53"/>
</g>
<!-- &#45;14 -->
<g id="node14" class="node">
<title>&#45;14</title>
<polygon fill="lightgray" stroke="black" points="1372,-83.49 1344,-83.49 1344,-64.99 1372,-64.99 1372,-83.49"/>
<text text-anchor="middle" x="1358" y="-70.94" font-family="Times New Roman,serif" font-size="9.00">&#45;14</text>
</g>
<!-- &#45;14&#45;&gt;0 -->
<g id="edge38" class="edge">
<title>&#45;14&#45;&gt;0</title>
<path fill="none" stroke="green" stroke-width="0.29" d="M1343.55,-67.5C1340.75,-66.55 1337.81,-65.65 1335,-64.99 1189.11,-30.62 1008.53,-19.51 943.65,-16.49"/>
<polygon fill="green" stroke="green" stroke-width="0.29" points="944.15,-13.01 934.01,-16.06 943.84,-20 944.15,-13.01"/>
</g>
<!-- &#45;14&#45;&gt;3 -->
<g id="edge39" class="edge">
<title>&#45;14&#45;&gt;3</title>
<path fill="none" stroke="red" stroke-width="0.39" d="M1343.57,-67.42C1340.76,-66.47 1337.82,-65.6 1335,-64.99 1143.66,-23.59 1083.19,-86.29 896,-28.99 895.08,-28.71 894.16,-28.39 893.24,-28.04"/>
<polygon fill="red" stroke="red" stroke-width="0.39" points="894.8,-24.91 884.28,-23.69 891.74,-31.2 894.8,-24.91"/>
</g>
<!-- &#45;15 -->
<g id="node15" class="node">
<title>&#45;15</title>
<polygon fill="lightgray" stroke="black" points="1418,-83.49 1390,-83.49 1390,-64.99 1418,-64.99 1418,-83.49"/>
<text text-anchor="middle" x="1404" y="-70.94" font-family="Times New Roman,serif" font-size="9.00">&#45;15</text>
</g>
<!-- &#45;15&#45;&gt;0 -->
<g id="edge101" class="edge">
<title>&#45;15&#45;&gt;0</title>
<path fill="none" stroke="green" stroke-width="0.56" d="M1389.56,-67.47C1386.75,-66.52 1383.81,-65.64 1381,-64.99 1217.49,-27.47 1014.74,-18.25 944.42,-16.11"/>
<polygon fill="green" stroke="green" stroke-width="0.56" points="944.53,-12.61 934.43,-15.83 944.33,-19.61 944.53,-12.61"/>
</g>
<!-- &#45;15&#45;&gt;3 -->
<g id="edge40" class="edge">
<title>&#45;15&#45;&gt;3</title>
<path fill="none" stroke="green" stroke-width="0.29" d="M1389.57,-67.4C1386.77,-66.45 1383.82,-65.59 1381,-64.99 1169.57,-20.09 1102.93,-91.46 896,-28.99 894.95,-28.67 893.89,-28.3 892.84,-27.89"/>
<polygon fill="green" stroke="green" stroke-width="0.29" points="894.66,-24.89 884.13,-23.64 891.58,-31.18 894.66,-24.89"/>
</g>
<!-- &#45;16 -->
<g id="node16" class="node">
<title>&#45;16</title>
<polygon fill="lightgray" stroke="black" points="116,-83.49 88,-83.49 88,-64.99 116,-64.99 116,-83.49"/>
<text text-anchor="middle" x="102" y="-70.94" font-family="Times New Roman,serif" font-size="9.00">&#45;16</text>
</g>
<!-- &#45;16&#45;&gt;1 -->
<g id="edge41" class="edge">
<title>&#45;16&#45;&gt;1</title>
<path fill="none" stroke="red" stroke-width="0.46" stroke-dasharray="1,5" d="M116.43,-67.39C119.23,-66.45 122.18,-65.59 125,-64.99 345.61,-18.5 409.11,-68.96 631,-28.99 638.4,-27.66 646.3,-25.59 653.43,-23.46"/>
<polygon fill="red" stroke="red" stroke-width="0.46" points="654.35,-26.84 662.84,-20.5 652.25,-20.17 654.35,-26.84"/>
</g>
<!-- &#45;16&#45;&gt;2 -->
<g id="edge42" class="edge">
<title>&#45;16&#45;&gt;2</title>
<path fill="none" stroke="green" stroke-width="0.13" stroke-dasharray="1,5" d="M116.44,-67.46C119.25,-66.51 122.19,-65.63 125,-64.99 297.4,-25.85 511.51,-17.62 583.27,-15.93"/>
<polygon fill="green" stroke="green" stroke-width="0.13" points="583.04,-19.43 592.97,-15.72 582.89,-12.43 583.04,-19.43"/>
</g>
<!-- &#45;17 -->
<g id="node17" class="node">
<title>&#45;17</title>
<polygon fill="lightgray" stroke="black" points="472,-83.49 444,-83.49 444,-64.99 472,-64.99 472,-83.49"/>
<text text-anchor="middle" x="458" y="-70.94" font-family="Times New Roman,serif" font-size="9.00">&#45;17</text>
</g>
<!-- &#45;17&#45;&gt;0 -->
<g id="edge43" class="edge">
<title>&#45;17&#45;&gt;0</title>
<path fill="none" stroke="red" stroke-width="0.19" d="M472.43,-67.43C475.24,-66.48 478.18,-65.61 481,-64.99 661.42,-25.48 718.53,-83.48 895,-28.99 896.05,-28.67 897.11,-28.29 898.16,-27.88"/>
<polygon fill="red" stroke="red" stroke-width="0.19" points="899.55,-31.09 906.98,-23.55 896.47,-24.81 899.55,-31.09"/>
</g>
<!-- &#45;17&#45;&gt;1 -->
<g id="edge44" class="edge">
<title>&#45;17&#45;&gt;1</title>
<path fill="none" stroke="green" stroke-width="1.26" d="M472.03,-67.94C474.97,-66.9 478.07,-65.86 481,-64.99 546.7,-45.39 564.75,-46.65 631,-28.99 637.84,-27.17 645.2,-25.07 652,-23.08"/>
<polygon fill="green" stroke="green" stroke-width="1.26" points="652.96,-26.44 661.54,-20.23 650.96,-19.73 652.96,-26.44"/>
</g>
<!-- &#45;17&#45;&gt;2 -->
<g id="edge45" class="edge">
<title>&#45;17&#45;&gt;2</title>
<path fill="none" stroke="red" stroke-width="0.32" d="M472.38,-67.7C498.47,-57.66 553.79,-36.37 585.11,-24.31"/>
<polygon fill="red" stroke="red" stroke-width="0.32" points="586.22,-27.63 594.29,-20.77 583.7,-21.1 586.22,-27.63"/>
</g>
<!-- &#45;18 -->
<g id="node18" class="node">
<title>&#45;18</title>
<polygon fill="lightgray" stroke="black" points="610,-83.49 582,-83.49 582,-64.99 610,-64.99 610,-83.49"/>
<text text-anchor="middle" x="596" y="-70.94" font-family="Times New Roman,serif" font-size="9.00">&#45;18</text>
</g>
<!-- &#45;18&#45;&gt;0 -->
<g id="edge46" class="edge">
<title>&#45;18&#45;&gt;0</title>
<path fill="none" stroke="green" stroke-width="0.36" d="M610.46,-67.52C613.26,-66.57 616.2,-65.67 619,-64.99 739.25,-35.94 777.61,-68.02 895,-28.99 896.04,-28.64 897.09,-28.25 898.14,-27.82"/>
<polygon fill="green" stroke="green" stroke-width="0.36" points="899.33,-31.14 906.72,-23.55 896.21,-24.87 899.33,-31.14"/>
</g>
<!-- &#45;18&#45;&gt;1 -->
<g id="edge47" class="edge">
<title>&#45;18&#45;&gt;1</title>
<path fill="none" stroke="green" stroke-width="0.29" stroke-dasharray="1,5" d="M607.95,-64.72C620.9,-55.49 641.77,-40.61 657.18,-29.62"/>
<polygon fill="green" stroke="green" stroke-width="0.29" points="659.05,-32.59 665.16,-23.93 654.99,-26.89 659.05,-32.59"/>
</g>
<!-- &#45;18&#45;&gt;2 -->
<g id="edge48" class="edge">
<title>&#45;18&#45;&gt;2</title>
<path fill="none" stroke="green" stroke-width="0.32" d="M597.77,-64.72C599.18,-57.96 601.21,-48.16 603.1,-39.08"/>
<polygon fill="green" stroke="green" stroke-width="0.32" points="606.49,-39.96 605.1,-29.46 599.64,-38.54 606.49,-39.96"/>
</g>
<!-- &#45;18&#45;&gt;3 -->
<g id="edge49" class="edge">
<title>&#45;18&#45;&gt;3</title>
<path fill="none" stroke="green" stroke-width="0.19" stroke-dasharray="1,5" d="M610.49,-67.67C613.29,-66.7 616.22,-65.76 619,-64.99 701.52,-42.26 801.93,-25.87 847.46,-19.03"/>
<polygon fill="green" stroke="green" stroke-width="0.19" points="847.89,-22.51 857.27,-17.58 846.87,-15.58 847.89,-22.51"/>
</g>
<!-- &#45;19 -->
<g id="node19" class="node">
<title>&#45;19</title>
<polygon fill="lightgray" stroke="black" points="1326,-83.49 1298,-83.49 1298,-64.99 1326,-64.99 1326,-83.49"/>
<text text-anchor="middle" x="1312" y="-70.94" font-family="Times New Roman,serif" font-size="9.00">&#45;19</text>
</g>
<!-- &#45;19&#45;&gt;0 -->
<g id="edge50" class="edge">
<title>&#45;19&#45;&gt;0</title>
<path fill="none" stroke="green" stroke-width="0.11" d="M1297.54,-67.53C1294.74,-66.58 1291.8,-65.67 1289,-64.99 1161.25,-33.91 1003.61,-21.01 943.69,-16.99"/>
<polygon fill="green" stroke="green" stroke-width="0.11" points="944.03,-13.5 933.83,-16.35 943.58,-20.49 944.03,-13.5"/>
</g>
<!-- &#45;19&#45;&gt;1 -->
<g id="edge51" class="edge">
<title>&#45;19&#45;&gt;1</title>
<path fill="none" stroke="red" stroke-width="1.55" stroke-dasharray="1,5" d="M1297.57,-67.41C1294.76,-66.47 1291.82,-65.6 1289,-64.99 1281.73,-63.42 821.07,-26.9 703.88,-17.62"/>
<polygon fill="red" stroke="red" stroke-width="1.55" points="704.21,-14.14 693.97,-16.84 703.66,-21.12 704.21,-14.14"/>
</g>
<!-- &#45;19&#45;&gt;3 -->
<g id="edge52" class="edge">
<title>&#45;19&#45;&gt;3</title>
<path fill="none" stroke="green" stroke-width="0.11" d="M1297.56,-67.44C1294.76,-66.49 1291.82,-65.61 1289,-64.99 1117.75,-27.08 1063.47,-81.13 896,-28.99 894.95,-28.66 893.9,-28.29 892.84,-27.87"/>
<polygon fill="green" stroke="green" stroke-width="0.11" points="894.43,-24.75 883.91,-23.48 891.34,-31.03 894.43,-24.75"/>
</g>
<!-- &#45;20 -->
<g id="node20" class="node">
<title>&#45;20</title>
<polygon fill="lightgray" stroke="black" points="518,-83.49 490,-83.49 490,-64.99 518,-64.99 518,-83.49"/>
<text text-anchor="middle" x="504" y="-70.94" font-family="Times New Roman,serif" font-size="9.00">&#45;20</text>
</g>
<!-- &#45;20&#45;&gt;0 -->
<g id="edge53" class="edge">
<title>&#45;20&#45;&gt;0</title>
<path fill="none" stroke="green" stroke-width="0.5" d="M518.44,-67.45C521.24,-66.5 524.19,-65.62 527,-64.99 687.34,-28.97 738.24,-78.32 895,-28.99 895.92,-28.7 896.84,-28.38 897.76,-28.02"/>
<polygon fill="green" stroke="green" stroke-width="0.5" points="899.1,-31.26 906.55,-23.72 896.03,-24.97 899.1,-31.26"/>
</g>
<!-- &#45;20&#45;&gt;1 -->
<g id="edge54" class="edge">
<title>&#45;20&#45;&gt;1</title>
<path fill="none" stroke="green" stroke-width="0.22" stroke-dasharray="1,5" d="M518.09,-68.12C521.03,-67.07 524.11,-65.99 527,-64.99 571.57,-49.65 623.91,-32.59 653.5,-23.04"/>
<polygon fill="green" stroke="green" stroke-width="0.22" points="654.55,-26.38 662.99,-19.99 652.4,-19.72 654.55,-26.38"/>
</g>
<!-- &#45;20&#45;&gt;2 -->
<g id="edge55" class="edge">
<title>&#45;20&#45;&gt;2</title>
<path fill="none" stroke="red" stroke-width="0.4" stroke-dasharray="1,5" d="M518.46,-65.21C536.11,-55.41 566.12,-38.75 586.48,-27.44"/>
<polygon fill="red" stroke="red" stroke-width="0.4" points="588.04,-30.58 595.08,-22.67 584.64,-24.46 588.04,-30.58"/>
</g>
<!-- &#45;21 -->
<g id="node21" class="node">
<title>&#45;21</title>
<polygon fill="lightgray" stroke="black" points="656,-83.49 628,-83.49 628,-64.99 656,-64.99 656,-83.49"/>
<text text-anchor="middle" x="642" y="-70.94" font-family="Times New Roman,serif" font-size="9.00">&#45;21</text>
</g>
<!-- &#45;21&#45;&gt;0 -->
<g id="edge56" class="edge">
<title>&#45;21&#45;&gt;0</title>
<path fill="none" stroke="green" stroke-width="0.44" stroke-dasharray="1,5" d="M656.47,-67.58C659.27,-66.62 662.2,-65.7 665,-64.99 765.25,-39.41 797.24,-62.89 895,-28.99 895.91,-28.68 896.82,-28.33 897.74,-27.95"/>
<polygon fill="green" stroke="green" stroke-width="0.44" points="899.2,-31.13 906.59,-23.54 896.08,-24.87 899.2,-31.13"/>
</g>
<!-- &#45;21&#45;&gt;1 -->
<g id="edge57" class="edge">
<title>&#45;21&#45;&gt;1</title>
<path fill="none" stroke="red" stroke-width="0.2" stroke-dasharray="1,5" d="M647.16,-64.72C651.76,-57.13 658.68,-45.72 664.69,-35.8"/>
<polygon fill="red" stroke="red" stroke-width="0.2" points="667.52,-37.89 669.71,-27.52 661.54,-34.26 667.52,-37.89"/>
</g>
<!-- &#45;21&#45;&gt;2 -->
<g id="edge58" class="edge">
<title>&#45;21&#45;&gt;2</title>
<path fill="none" stroke="green" stroke-width="2.11" d="M636.98,-64.72C632.92,-57.83 627.01,-47.79 621.58,-38.57"/>
<polygon fill="green" stroke="green" stroke-width="2.11" points="624.64,-36.85 616.55,-30.01 618.6,-40.4 624.64,-36.85"/>
</g>
<!-- &#45;21&#45;&gt;3 -->
<g id="edge100" class="edge">
<title>&#45;21&#45;&gt;3</title>
<path fill="none" stroke="red" stroke-width="0.48" d="M656.03,-67.93C658.97,-66.9 662.07,-65.86 665,-64.99 729.95,-45.64 808.07,-28.61 847.17,-20.51"/>
<polygon fill="red" stroke="red" stroke-width="0.48" points="847.75,-23.97 856.84,-18.53 846.34,-17.11 847.75,-23.97"/>
</g>
<!-- &#45;22 -->
<g id="node22" class="node">
<title>&#45;22</title>
<polygon fill="lightgray" stroke="black" points="702,-83.49 674,-83.49 674,-64.99 702,-64.99 702,-83.49"/>
<text text-anchor="middle" x="688" y="-70.94" font-family="Times New Roman,serif" font-size="9.00">&#45;22</text>
</g>
<!-- &#45;22&#45;&gt;0 -->
<g id="edge59" class="edge">
<title>&#45;22&#45;&gt;0</title>
<path fill="none" stroke="green" stroke-width="0.38" d="M702.49,-67.67C705.29,-66.7 708.22,-65.76 711,-64.99 791.34,-42.86 816.8,-57.78 895,-28.99 895.9,-28.66 896.81,-28.3 897.72,-27.91"/>
<polygon fill="green" stroke="green" stroke-width="0.38" points="899.29,-31.04 906.64,-23.4 896.13,-24.79 899.29,-31.04"/>
</g>
<!-- &#45;22&#45;&gt;1 -->
<g id="edge60" class="edge">
<title>&#45;22&#45;&gt;1</title>
<path fill="none" stroke="red" stroke-width="0.81" d="M686.38,-64.72C685.13,-58.18 683.34,-48.79 681.66,-39.97"/>
<polygon fill="red" stroke="red" stroke-width="0.81" points="685.11,-39.36 679.8,-30.19 678.23,-40.67 685.11,-39.36"/>
</g>
<!-- &#45;22&#45;&gt;2 -->
<g id="edge61" class="edge">
<title>&#45;22&#45;&gt;2</title>
<path fill="none" stroke="red" stroke-width="0.28" stroke-dasharray="1,5" d="M676.2,-64.72C663.48,-55.54 643.03,-40.78 627.83,-29.81"/>
<polygon fill="red" stroke="red" stroke-width="0.28" points="630.09,-27.13 619.94,-24.11 626,-32.8 630.09,-27.13"/>
</g>
<!-- &#45;22&#45;&gt;3 -->
<g id="edge62" class="edge">
<title>&#45;22&#45;&gt;3</title>
<path fill="none" stroke="green" stroke-width="0.26" stroke-dasharray="1,5" d="M702.07,-68.08C705.01,-67.03 708.1,-65.96 711,-64.99 759.61,-48.81 817.09,-31.6 848.53,-22.34"/>
<polygon fill="green" stroke="green" stroke-width="0.26" points="849.16,-25.81 857.77,-19.63 847.19,-19.09 849.16,-25.81"/>
</g>
<!-- &#45;23 -->
<g id="node23" class="node">
<title>&#45;23</title>
<polygon fill="lightgray" stroke="black" points="250,-83.49 222,-83.49 222,-64.99 250,-64.99 250,-83.49"/>
<text text-anchor="middle" x="236" y="-70.94" font-family="Times New Roman,serif" font-size="9.00">&#45;23</text>
</g>
<!-- &#45;23&#45;&gt;1 -->
<g id="edge63" class="edge">
<title>&#45;23&#45;&gt;1</title>
<path fill="none" stroke="green" stroke-width="0.16" stroke-dasharray="1,5" d="M250.44,-67.45C253.24,-66.5 256.19,-65.62 259,-64.99 421.09,-28.67 467.91,-60.51 631,-28.99 638.55,-27.53 646.65,-25.37 653.91,-23.2"/>
<polygon fill="green" stroke="green" stroke-width="0.16" points="654.75,-26.6 663.24,-20.27 652.65,-19.92 654.75,-26.6"/>
</g>
<!-- &#45;23&#45;&gt;2 -->
<g id="edge64" class="edge">
<title>&#45;23&#45;&gt;2</title>
<path fill="none" stroke="green" stroke-width="1.24" d="M250.46,-67.55C253.26,-66.59 256.2,-65.68 259,-64.99 377.19,-35.74 522.46,-22.06 581.34,-17.42"/>
<polygon fill="green" stroke="green" stroke-width="1.24" points="581.6,-20.91 591.3,-16.66 581.06,-13.93 581.6,-20.91"/>
</g>
<!-- &#45;23&#45;&gt;3 -->
<g id="edge65" class="edge">
<title>&#45;23&#45;&gt;3</title>
<path fill="none" stroke="green" stroke-width="0.22" d="M250.43,-67.41C253.24,-66.47 256.18,-65.6 259,-64.99 266.33,-63.41 733.33,-26.45 847.18,-17.46"/>
<polygon fill="green" stroke="green" stroke-width="0.22" points="847.33,-20.95 857.02,-16.68 846.78,-13.98 847.33,-20.95"/>
</g>
<!-- &#45;24 -->
<g id="node24" class="node">
<title>&#45;24</title>
<polygon fill="lightgray" stroke="black" points="426,-83.49 398,-83.49 398,-64.99 426,-64.99 426,-83.49"/>
<text text-anchor="middle" x="412" y="-70.94" font-family="Times New Roman,serif" font-size="9.00">&#45;24</text>
</g>
<!-- &#45;24&#45;&gt;0 -->
<g id="edge66" class="edge">
<title>&#45;24&#45;&gt;0</title>
<path fill="none" stroke="red" stroke-width="0.54" stroke-dasharray="1,5" d="M426.43,-67.41C429.23,-66.46 432.18,-65.6 435,-64.99 635.51,-21.99 698.8,-88.65 895,-28.99 895.92,-28.71 896.84,-28.39 897.77,-28.04"/>
<polygon fill="red" stroke="red" stroke-width="0.54" points="899.05,-31.31 906.51,-23.8 895.99,-25.01 899.05,-31.31"/>
</g>
<!-- &#45;24&#45;&gt;1 -->
<g id="edge67" class="edge">
<title>&#45;24&#45;&gt;1</title>
<path fill="none" stroke="green" stroke-width="0.29" stroke-dasharray="1,5" d="M426.49,-67.64C429.29,-66.68 432.21,-65.74 435,-64.99 520.52,-41.96 544.84,-49.49 631,-28.99 638.4,-27.23 646.38,-25.01 653.58,-22.88"/>
<polygon fill="green" stroke="green" stroke-width="0.29" points="654.45,-26.27 663,-20.01 652.41,-19.57 654.45,-26.27"/>
</g>
<!-- &#45;24&#45;&gt;2 -->
<g id="edge68" class="edge">
<title>&#45;24&#45;&gt;2</title>
<path fill="none" stroke="green" stroke-width="0.15" d="M426.06,-68.03C429,-66.99 432.09,-65.93 435,-64.99 487.86,-47.97 550.72,-30.72 584.21,-21.77"/>
<polygon fill="green" stroke="green" stroke-width="0.15" points="585.02,-25.18 593.78,-19.22 583.22,-18.41 585.02,-25.18"/>
</g>
<!-- &#45;25 -->
<g id="node25" class="node">
<title>&#45;25</title>
<polygon fill="lightgray" stroke="black" points="748,-83.49 720,-83.49 720,-64.99 748,-64.99 748,-83.49"/>
<text text-anchor="middle" x="734" y="-70.94" font-family="Times New Roman,serif" font-size="9.00">&#45;25</text>
</g>
<!-- &#45;25&#45;&gt;0 -->
<g id="edge69" class="edge">
<title>&#45;25&#45;&gt;0</title>
<path fill="none" stroke="green" stroke-width="0.39" d="M748.04,-67.98C750.99,-66.94 754.08,-65.89 757,-64.99 817.56,-46.27 836.22,-52.72 895,-28.99 895.89,-28.63 896.79,-28.24 897.69,-27.84"/>
<polygon fill="green" stroke="green" stroke-width="0.39" points="899.29,-30.95 906.57,-23.26 896.08,-24.73 899.29,-30.95"/>
</g>
<!-- &#45;25&#45;&gt;1 -->
<g id="edge97" class="edge">
<title>&#45;25&#45;&gt;1</title>
<path fill="none" stroke="red" stroke-width="0.38" d="M725.59,-64.72C717.4,-56.42 704.7,-43.56 694.34,-33.06"/>
<polygon fill="red" stroke="red" stroke-width="0.38" points="696.91,-30.68 687.39,-26.02 691.92,-35.6 696.91,-30.68"/>
</g>
<!-- &#45;25&#45;&gt;2 -->
<g id="edge70" class="edge">
<title>&#45;25&#45;&gt;2</title>
<path fill="none" stroke="green" stroke-width="0.66" d="M719.55,-66.62C697.84,-56.67 656.64,-37.79 630.84,-25.96"/>
<polygon fill="green" stroke="green" stroke-width="0.66" points="632.6,-22.92 622.05,-21.94 629.68,-29.28 632.6,-22.92"/>
</g>
<!-- &#45;25&#45;&gt;3 -->
<g id="edge71" class="edge">
<title>&#45;25&#45;&gt;3</title>
<path fill="none" stroke="green" stroke-width="1.78" d="M748.25,-67.28C771.64,-57.49 818.48,-37.89 847.34,-25.81"/>
<polygon fill="green" stroke="green" stroke-width="1.78" points="848.48,-29.13 856.35,-22.04 845.78,-22.67 848.48,-29.13"/>
</g>
<!-- &#45;26 -->
<g id="node26" class="node">
<title>&#45;26</title>
<polygon fill="lightgray" stroke="black" points="794,-83.49 766,-83.49 766,-64.99 794,-64.99 794,-83.49"/>
<text text-anchor="middle" x="780" y="-70.94" font-family="Times New Roman,serif" font-size="9.00">&#45;26</text>
</g>
<!-- &#45;26&#45;&gt;0 -->
<g id="edge72" class="edge">
<title>&#45;26&#45;&gt;0</title>
<path fill="none" stroke="green" stroke-width="0.31" stroke-dasharray="1,5" d="M794.48,-67.97C821.02,-58.25 876.42,-37.73 895,-28.99 895.99,-28.52 897,-28.03 898.02,-27.52"/>
<polygon fill="green" stroke="green" stroke-width="0.31" points="899.41,-30.75 906.56,-22.93 896.09,-24.58 899.41,-30.75"/>
</g>
<!-- &#45;26&#45;&gt;1 -->
<g id="edge73" class="edge">
<title>&#45;26&#45;&gt;1</title>
<path fill="none" stroke="green" stroke-width="0.2" d="M765.68,-65.21C748.21,-55.42 718.53,-38.78 698.36,-27.47"/>
<polygon fill="green" stroke="green" stroke-width="0.2" points="700.28,-24.54 689.85,-22.7 696.86,-30.64 700.28,-24.54"/>
</g>
<!-- &#45;26&#45;&gt;2 -->
<g id="edge74" class="edge">
<title>&#45;26&#45;&gt;2</title>
<path fill="none" stroke="red" stroke-width="0.46" d="M765.91,-68.13C762.97,-67.08 759.89,-65.99 757,-64.99 712.91,-49.76 661.18,-32.78 631.73,-23.19"/>
<polygon fill="red" stroke="red" stroke-width="0.46" points="632.86,-19.87 622.26,-20.11 630.69,-26.53 632.86,-19.87"/>
</g>
<!-- &#45;26&#45;&gt;3 -->
<g id="edge75" class="edge">
<title>&#45;26&#45;&gt;3</title>
<path fill="none" stroke="red" stroke-width="0.46" d="M793.57,-64.72C808.67,-55.24 833.25,-39.82 850.87,-28.76"/>
<polygon fill="red" stroke="red" stroke-width="0.46" points="852.64,-31.78 859.25,-23.5 848.92,-25.85 852.64,-31.78"/>
</g>
<!-- &#45;27 -->
<g id="node27" class="node">
<title>&#45;27</title>
<polygon fill="lightgray" stroke="black" points="338,-83.49 310,-83.49 310,-64.99 338,-64.99 338,-83.49"/>
<text text-anchor="middle" x="324" y="-70.94" font-family="Times New Roman,serif" font-size="9.00">&#45;27</text>
</g>
<!-- &#45;27&#45;&gt;1 -->
<g id="edge76" class="edge">
<title>&#45;27&#45;&gt;1</title>
<path fill="none" stroke="red" stroke-width="0.13" d="M338.46,-67.52C341.26,-66.56 344.19,-65.66 347,-64.99 470.73,-35.34 506.45,-54.98 631,-28.99 638.53,-27.42 646.62,-25.22 653.88,-23.06"/>
<polygon fill="red" stroke="red" stroke-width="0.13" points="654.76,-26.45 663.27,-20.14 652.69,-19.77 654.76,-26.45"/>
</g>
<!-- &#45;27&#45;&gt;2 -->
<g id="edge77" class="edge">
<title>&#45;27&#45;&gt;2</title>
<path fill="none" stroke="green" stroke-width="0.44" d="M338.49,-67.65C341.29,-66.69 344.22,-65.75 347,-64.99 432.3,-41.76 536.2,-25.57 583.01,-18.9"/>
<polygon fill="green" stroke="green" stroke-width="0.44" points="583.31,-22.39 592.73,-17.54 582.34,-15.46 583.31,-22.39"/>
</g>
<!-- &#45;27&#45;&gt;3 -->
<g id="edge78" class="edge">
<title>&#45;27&#45;&gt;3</title>
<path fill="none" stroke="red" stroke-width="0.16" d="M338.44,-67.44C341.24,-66.49 344.18,-65.62 347,-64.99 396.26,-54.02 750.16,-25.23 847.36,-17.45"/>
<polygon fill="red" stroke="red" stroke-width="0.16" points="847.49,-20.95 857.18,-16.67 846.94,-13.98 847.49,-20.95"/>
</g>
<!-- &#45;28 -->
<g id="node28" class="node">
<title>&#45;28</title>
<polygon fill="lightgray" stroke="black" points="840,-83.49 812,-83.49 812,-64.99 840,-64.99 840,-83.49"/>
<text text-anchor="middle" x="826" y="-70.94" font-family="Times New Roman,serif" font-size="9.00">&#45;28</text>
</g>
<!-- &#45;28&#45;&gt;0 -->
<g id="edge79" class="edge">
<title>&#45;28&#45;&gt;0</title>
<path fill="none" stroke="red" stroke-width="0.15" d="M839.72,-64.72C855.21,-55.1 880.57,-39.36 898.43,-28.27"/>
<polygon fill="red" stroke="red" stroke-width="0.15" points="900.16,-31.31 906.81,-23.07 896.47,-25.37 900.16,-31.31"/>
</g>
<!-- &#45;28&#45;&gt;1 -->
<g id="edge80" class="edge">
<title>&#45;28&#45;&gt;1</title>
<path fill="none" stroke="green" stroke-width="0.5" stroke-dasharray="1,5" d="M811.71,-67.7C786.04,-57.76 731.88,-36.76 700.61,-24.65"/>
<polygon fill="green" stroke="green" stroke-width="0.5" points="701.89,-21.39 691.3,-21.04 699.36,-27.91 701.89,-21.39"/>
</g>
<!-- &#45;28&#45;&gt;2 -->
<g id="edge81" class="edge">
<title>&#45;28&#45;&gt;2</title>
<path fill="none" stroke="green" stroke-width="0.2" stroke-dasharray="1,5" d="M811.97,-67.94C809.03,-66.9 805.93,-65.87 803,-64.99 737.73,-45.46 719.82,-46.59 654,-28.99 646.65,-27.03 638.69,-24.75 631.49,-22.62"/>
<polygon fill="green" stroke="green" stroke-width="0.2" points="632.51,-19.28 621.93,-19.77 630.51,-25.99 632.51,-19.28"/>
</g>
<!-- &#45;28&#45;&gt;3 -->
<g id="edge82" class="edge">
<title>&#45;28&#45;&gt;3</title>
<path fill="none" stroke="green" stroke-width="0.1" d="M832.79,-64.72C839.18,-56.7 848.96,-44.42 857.16,-34.13"/>
<polygon fill="green" stroke="green" stroke-width="0.1" points="859.71,-36.54 863.2,-26.54 854.23,-32.18 859.71,-36.54"/>
</g>
<!-- &#45;29 -->
<g id="node29" class="node">
<title>&#45;29</title>
<polygon fill="lightgray" stroke="black" points="886,-83.49 858,-83.49 858,-64.99 886,-64.99 886,-83.49"/>
<text text-anchor="middle" x="872" y="-70.94" font-family="Times New Roman,serif" font-size="9.00">&#45;29</text>
</g>
<!-- &#45;29&#45;&gt;0 -->
<g id="edge83" class="edge">
<title>&#45;29&#45;&gt;0</title>
<path fill="none" stroke="green" stroke-width="0.32" d="M878.94,-64.72C885.4,-56.78 895.26,-44.66 903.59,-34.43"/>
<polygon fill="green" stroke="green" stroke-width="0.32" points="906.21,-36.76 909.8,-26.79 900.78,-32.34 906.21,-36.76"/>
</g>
<!-- &#45;29&#45;&gt;1 -->
<g id="edge84" class="edge">
<title>&#45;29&#45;&gt;1</title>
<path fill="none" stroke="red" stroke-width="0.41" d="M857.94,-68.04C855,-66.99 851.91,-65.93 849,-64.99 796.66,-48.09 734.48,-30.9 701.08,-21.9"/>
<polygon fill="red" stroke="red" stroke-width="0.41" points="702.07,-18.54 691.51,-19.33 700.26,-25.3 702.07,-18.54"/>
</g>
<!-- &#45;29&#45;&gt;2 -->
<g id="edge85" class="edge">
<title>&#45;29&#45;&gt;2</title>
<path fill="none" stroke="red" stroke-width="0.17" d="M857.51,-67.64C854.71,-66.68 851.79,-65.74 849,-64.99 763.91,-42.04 739.73,-49.42 654,-28.99 646.52,-27.21 638.44,-24.95 631.17,-22.8"/>
<polygon fill="red" stroke="red" stroke-width="0.17" points="632.42,-19.52 621.83,-19.96 630.38,-26.22 632.42,-19.52"/>
</g>
<!-- &#45;29&#45;&gt;3 -->
<g id="edge86" class="edge">
<title>&#45;29&#45;&gt;3</title>
<path fill="none" stroke="green" stroke-width="0.46" stroke-dasharray="1,5" d="M872,-64.72C872,-58.19 872,-48.84 872,-40.03"/>
<polygon fill="green" stroke="green" stroke-width="0.46" points="875.5,-40.12 872,-30.12 868.5,-40.12 875.5,-40.12"/>
</g>
<!-- &#45;30 -->
<g id="node30" class="node">
<title>&#45;30</title>
<polygon fill="lightgray" stroke="black" points="932,-83.49 904,-83.49 904,-64.99 932,-64.99 932,-83.49"/>
<text text-anchor="middle" x="918" y="-70.94" font-family="Times New Roman,serif" font-size="9.00">&#45;30</text>
</g>
<!-- &#45;30&#45;&gt;0 -->
<g id="edge87" class="edge">
<title>&#45;30&#45;&gt;0</title>
<path fill="none" stroke="red" stroke-width="0.22" d="M918.15,-64.72C918.26,-58.12 918.43,-48.63 918.58,-39.74"/>
<polygon fill="red" stroke="red" stroke-width="0.22" points="922.08,-39.82 918.75,-29.76 915.08,-39.7 922.08,-39.82"/>
</g>
<!-- &#45;30&#45;&gt;1 -->
<g id="edge88" class="edge">
<title>&#45;30&#45;&gt;1</title>
<path fill="none" stroke="green" stroke-width="1.95" d="M903.98,-67.91C901.03,-66.87 897.93,-65.85 895,-64.99 827.2,-45.21 745.63,-28.54 704.13,-20.56"/>
<polygon fill="green" stroke="green" stroke-width="1.95" points="704.82,-17.12 694.34,-18.7 703.51,-24 704.82,-17.12"/>
</g>
<!-- &#45;30&#45;&gt;2 -->
<g id="edge89" class="edge">
<title>&#45;30&#45;&gt;2</title>
<path fill="none" stroke="green" stroke-width="0.12" d="M903.53,-67.57C900.73,-66.61 897.8,-65.69 895,-64.99 789.97,-38.58 759.76,-52.29 654,-28.99 646.49,-27.34 638.4,-25.12 631.14,-22.96"/>
<polygon fill="green" stroke="green" stroke-width="0.12" points="632.32,-19.66 621.74,-20.06 630.26,-26.35 632.32,-19.66"/>
</g>
<!-- &#45;30&#45;&gt;3 -->
<g id="edge90" class="edge">
<title>&#45;30&#45;&gt;3</title>
<path fill="none" stroke="green" stroke-width="0.87" d="M911.21,-64.72C905.01,-56.94 895.62,-45.14 887.58,-35.05"/>
<polygon fill="green" stroke="green" stroke-width="0.87" points="890.49,-33.09 881.53,-27.45 885.02,-37.46 890.49,-33.09"/>
</g>
<!-- &#45;31 -->
<g id="node31" class="node">
<title>&#45;31</title>
<polygon fill="lightgray" stroke="black" points="162,-83.49 134,-83.49 134,-64.99 162,-64.99 162,-83.49"/>
<text text-anchor="middle" x="148" y="-70.94" font-family="Times New Roman,serif" font-size="9.00">&#45;31</text>
</g>
<!-- &#45;31&#45;&gt;1 -->
<g id="edge91" class="edge">
<title>&#45;31&#45;&gt;1</title>
<path fill="none" stroke="red" stroke-width="0.39" d="M162.43,-67.41C165.23,-66.46 168.18,-65.6 171,-64.99 371.51,-21.99 429.31,-66.06 631,-28.99 638.39,-27.63 646.29,-25.55 653.43,-23.43"/>
<polygon fill="red" stroke="red" stroke-width="0.39" points="654.44,-26.78 662.93,-20.44 652.34,-20.1 654.44,-26.78"/>
</g>
<!-- &#45;31&#45;&gt;2 -->
<g id="edge92" class="edge">
<title>&#45;31&#45;&gt;2</title>
<path fill="none" stroke="red" stroke-width="0.73" d="M162.45,-67.49C165.25,-66.53 168.19,-65.65 171,-64.99 324.29,-29.33 514.04,-19.01 582.16,-16.34"/>
<polygon fill="red" stroke="red" stroke-width="0.73" points="582.1,-19.84 591.97,-15.98 581.84,-12.85 582.1,-19.84"/>
</g>
<!-- &#45;32 -->
<g id="node32" class="node">
<title>&#45;32</title>
<polygon fill="lightgray" stroke="black" points="978,-83.49 950,-83.49 950,-64.99 978,-64.99 978,-83.49"/>
<text text-anchor="middle" x="964" y="-70.94" font-family="Times New Roman,serif" font-size="9.00">&#45;32</text>
</g>
<!-- &#45;32&#45;&gt;0 -->
<g id="edge93" class="edge">
<title>&#45;32&#45;&gt;0</title>
<path fill="none" stroke="green" stroke-width="0.24" d="M957.36,-64.72C951.17,-56.78 941.73,-44.66 933.76,-34.43"/>
<polygon fill="green" stroke="green" stroke-width="0.24" points="936.65,-32.45 927.74,-26.71 931.12,-36.75 936.65,-32.45"/>
</g>
<!-- &#45;32&#45;&gt;1 -->
<g id="edge94" class="edge">
<title>&#45;32&#45;&gt;1</title>
<path fill="none" stroke="green" stroke-width="0.58" d="M949.51,-67.65C946.71,-66.68 943.78,-65.75 941,-64.99 854.7,-41.58 749.57,-25.47 702.23,-18.86"/>
<polygon fill="green" stroke="green" stroke-width="0.58" points="702.74,-15.4 692.35,-17.5 701.78,-22.33 702.74,-15.4"/>
</g>
<!-- &#45;32&#45;&gt;2 -->
<g id="edge95" class="edge">
<title>&#45;32&#45;&gt;2</title>
<path fill="none" stroke="red" stroke-width="0.17" stroke-dasharray="1,5" d="M949.55,-67.51C946.74,-66.56 943.81,-65.66 941,-64.99 815.97,-35.11 779.86,-55.17 654,-28.99 646.47,-27.42 638.38,-25.23 631.11,-23.06"/>
<polygon fill="red" stroke="red" stroke-width="0.17" points="632.37,-19.79 621.78,-20.17 630.29,-26.48 632.37,-19.79"/>
</g>
<!-- &#45;32&#45;&gt;3 -->
<g id="edge96" class="edge">
<title>&#45;32&#45;&gt;3</title>
<path fill="none" stroke="red" stroke-width="0.41" stroke-dasharray="1,5" d="M950.43,-64.72C935.33,-55.24 910.75,-39.82 893.13,-28.76"/>
<polygon fill="red" stroke="red" stroke-width="0.41" points="895.01,-25.81 884.68,-23.46 891.29,-31.74 895.01,-25.81"/>
</g>
</g>
</svg>
